<?xml version="1.0" encoding="UTF-8"?>
<!-- Created with Inkscape (http://www.inkscape.org/) -->
<svg width="128" height="128" version="1.1" viewBox="0 0 33.867 33.867" xml:space="preserve" xmlns="http://www.w3.org/2000/svg"><circle cx="16.933" cy="16.933" r="16.933" fill="#009b77"/><path d="m9.9944 4.5975a0.77107 0.77107 0 0 0-0.77099 0.77099v4.6259c0 3.1248 1.9161 5.7301 4.5988 6.9389-2.6824 1.2089-4.5988 3.8142-4.5988 6.9389v4.6259a0.77107 0.77107 0 0 0 0.77099 0.77098h13.878a0.77107 0.77107 0 0 0 0.77099-0.77098v-4.6259c0-3.125-1.9159-5.7303-4.5988-6.9389 2.6834-1.2085 4.5988-3.8136 4.5988-6.9389v-4.6259a0.77107 0.77107 0 0 0-0.77099-0.77099zm0.77099 1.542h12.336v3.855c0 2.9424-2.0511 5.3908-4.7946 6.0143a0.77107 0.77107 0 0 0-0.59932 0.75895l3e-3 0.34332a0.77107 0.77107 0 0 0 0.59932 0.7469c2.7423 0.62447 4.7915 3.0727 4.7915 6.0143v3.8549h-12.336v-3.8549c0-2.9427 2.0508-5.3911 4.7946-6.0143a0.77107 0.77107 0 0 0 0.59932-0.74991l3e-3 -0.34636a0.77107 0.77107 0 0 0-0.6024-0.7529c-2.7441-0.62304-4.7946-3.0713-4.7946-6.0143v-3.8549zm3.855 3.084a0.77099 0.77099 0 0 0-0.77099 0.77099c0 1.694 1.3899 3.084 3.084 3.084 1.6941 0 3.084-1.3899 3.084-3.084a0.77099 0.77099 0 0 0-0.77099-0.77099 0.77099 0.77099 0 0 0-0.77099 0.77099c0 0.86075-0.68123 1.542-1.542 1.542-0.86075 0-1.542-0.68123-1.542-1.542a0.77099 0.77099 0 0 0-0.77098-0.77099zm2.313 11.565c-1.694 0-3.084 1.3899-3.084 3.084a0.77099 0.77099 0 0 0 0.77099 0.77099 0.77099 0.77099 0 0 0 0.77098-0.77099c0-0.86074 0.68124-1.542 1.542-1.542 0.86075 0 1.542 0.68125 1.542 1.542a0.77099 0.77099 0 0 0 0.77099 0.77099 0.77099 0.77099 0 0 0 0.77099-0.77099c0-1.694-1.3899-3.084-3.084-3.084z" color="#000000" stroke-linecap="round" stroke-linejoin="round" stroke-width="1.542" style="-inkscape-stroke:none"/></svg>
