<svg width="2000" height="2000" viewBox="0 0 2000 2000" fill="none" xmlns="http://www.w3.org/2000/svg">
<path d="M374.221 486.26V1625.43H1590.36V486.26H374.221Z" fill="#FDD005"/>
<path d="M1410.94 909.119C1394.44 912.409 1366.39 925.618 1348.21 933.878C1344.92 935.535 1344.92 940.483 1348.21 940.483C1353.18 942.14 1356.49 943.775 1359.76 947.087C1368.04 956.984 1377.94 965.244 1377.94 978.453C1377.94 993.294 1369.68 998.244 1371.33 1011.45C1376.28 1037.87 1397.73 1064.26 1397.73 1092.34C1396.09 1113.79 1376.28 1113.79 1364.73 1128.65C1361.42 1133.6 1359.76 1138.55 1359.76 1145.15C1359.76 1151.76 1358.13 1163.31 1364.73 1163.31C1372.97 1164.96 1374.63 1148.46 1382.88 1148.46C1394.44 1150.1 1392.8 1166.62 1402.7 1166.62H1836.78C1835.12 1161.65 1831.83 1155.07 1828.54 1153.41C1807.07 1133.6 1752.6 1107.18 1742.71 1075.84C1726.19 1027.95 1747.66 966.901 1754.26 914.066C1777.36 760.577 1769.13 676.377 1741.05 549.284C1726.19 476.658 1714.64 412.294 1693.19 341.325C1689.88 328.116 1671.74 309.959 1665.12 298.407C1660.17 290.147 1655.22 275.281 1653.57 265.386C1642.01 210.917 1646.98 158.105 1607.36 111.875C1592.49 95.3758 1564.44 93.7183 1546.29 82.1665C1511.63 64.01 1476.98 45.8535 1442.3 24.4073C1437.35 21.0923 1422.49 16.1453 1414.25 21.0925C1453.85 49.1686 1480.27 82.1662 1491.82 131.688C1496.77 154.792 1503.37 172.949 1480.27 186.156C1473.66 189.471 1430.75 217.522 1410.94 265.386C1405.99 275.281 1377.94 339.667 1344.92 400.742C1305.32 379.272 1265.69 377.638 1237.64 377.638C1207.93 377.638 1155.1 380.928 1130.34 399.084C1077.55 438.71 1054.43 489.867 1037.93 547.649C1024.72 592.201 1016.48 638.432 1013.17 684.639C1009.85 747.368 1016.48 816.679 1023.06 879.411C1028.03 920.671 1032.96 960.297 1036.27 1001.56C1044.51 1046.11 1042.87 1080.79 1041.22 1089.02C1026.38 1135.25 1003.27 1151.76 958.7 1160.02C952.095 1160.02 948.783 1163.31 950.44 1166.62C991.722 1166.62 1032.96 1166.62 1074.24 1166.62H1226.09C1239.27 1166.62 1242.59 1160.02 1255.8 1148.46C1273.95 1130.31 1249.19 1098.94 1255.8 1057.68C1270.66 955.327 1315.21 862.91 1336.66 763.867C1339.97 752.315 1341.63 737.451 1343.28 720.952C1351.52 760.577 1363.07 798.525 1374.63 836.493C1386.18 876.096 1397.73 897.567 1415.91 907.462C1414.25 907.462 1412.59 907.462 1410.94 909.119Z" fill="#231F20"/>
<path d="M1496.77 1161.65C1505.03 1133.6 1509.98 1113.79 1500.08 1084.08C1493.45 1060.97 1473.66 1042.82 1465.43 1019.71C1455.51 988.347 1463.77 953.692 1447.25 925.618C1443.96 919.013 1435.7 912.409 1427.46 907.462C1407.65 895.91 1401.04 889.305 1392.8 869.514C1389.49 862.909 1386.18 856.307 1384.52 849.702C1366.39 796.89 1353.18 742.421 1343.28 689.586C1338.31 717.66 1335.02 744.055 1330.07 772.129C1321.81 803.472 1313.55 833.201 1303.66 862.909C1282.21 925.618 1260.74 990.005 1250.83 1056.03C1249.19 1069.23 1249.19 1080.79 1250.83 1093.99C1252.48 1105.55 1262.4 1130.31 1250.83 1143.49C1239.27 1156.7 1235.98 1160.02 1224.43 1161.65C1186.49 1161.65 1141.89 1161.65 1103.95 1161.65C1112.21 1158.36 1120.44 1151.76 1125.41 1143.49C1140.26 1112.15 1102.29 1013.11 1094.03 976.795C1087.45 945.432 1072.58 915.724 1067.63 884.358C1065.98 862.909 1062.69 796.89 1065.98 780.368C1065.98 775.419 1069.27 773.764 1072.58 780.368C1075.89 808.442 1067.63 871.148 1082.48 902.514C1085.79 910.774 1100.65 905.827 1105.58 899.222C1118.79 882.7 1125.42 862.909 1132 843.097C1141.89 808.442 1150.18 788.628 1155.1 742.421C1160.07 697.848 1150.18 682.981 1155.1 638.431C1158.41 620.274 1153.44 600.461 1163.36 570.753C1174.91 536.097 1184.83 512.971 1209.59 491.524C1229.38 471.711 1260.74 466.763 1288.79 463.448C1364.73 463.448 1354.83 545.991 1371.33 588.909C1376.28 603.753 1391.15 640.064 1399.39 654.931C1405.99 669.772 1417.54 696.19 1425.8 720.952C1432.41 739.108 1430.75 765.525 1425.8 775.419C1420.83 783.681 1429.11 788.628 1435.7 782.023C1443.96 768.816 1443.96 758.92 1448.9 744.056C1453.85 729.212 1457.14 706.085 1462.11 692.899C1470.35 669.772 1486.87 648.325 1491.82 623.564C1496.77 600.461 1493.45 577.357 1485.22 554.254C1480.27 545.992 1462.11 493.18 1452.22 478.315C1429.11 453.554 1410.94 450.261 1372.97 420.553C1366.39 415.585 1358.13 410.636 1349.86 405.689C1369.68 359.482 1396.09 318.199 1414.25 271.991C1429.11 234.021 1453.85 214.229 1481.9 192.76C1529.77 220.813 1526.5 222.469 1533.08 278.596C1531.42 308.304 1534.74 338.012 1533.08 366.086C1533.08 377.638 1524.84 404.032 1524.84 415.586C1526.5 433.74 1524.84 440.344 1528.13 460.158C1529.77 475.023 1544.63 488.209 1541.34 503.076C1531.42 569.095 1503.37 630.169 1501.74 696.19C1500.08 760.577 1511.63 848.045 1566.08 890.963C1572.7 895.91 1585.91 887.671 1587.55 879.411C1595.81 841.44 1584.25 800.18 1589.2 762.212C1592.49 737.451 1599.12 709.4 1607.36 684.639C1613.96 664.825 1630.46 618.617 1643.67 603.753C1646.98 597.148 1655.22 602.118 1651.91 607.065C1650.27 607.065 1622.22 668.14 1610.67 714.347C1597.46 763.867 1585.91 836.493 1617.25 881.066C1627.15 897.567 1648.62 914.066 1663.46 938.827C1671.74 953.692 1676.67 1019.71 1673.38 1036.21C1666.77 1082.42 1610.67 1156.7 1556.18 1161.65C1536.39 1161.65 1516.58 1161.65 1496.77 1161.65Z" fill="white"/>
<path d="M1399.39 955.327V952.035C1397.73 950.38 1392.8 947.087 1392.8 947.087C1386.18 940.483 1389.49 927.276 1399.39 925.618C1415.91 920.671 1434.04 925.619 1439.01 940.483C1443.96 953.692 1435.7 970.191 1424.14 980.088C1414.25 990.005 1397.73 981.743 1391.15 983.401C1387.83 985.058 1387.83 986.692 1389.49 988.348C1396.09 991.64 1407.65 991.64 1417.54 991.64C1424.14 991.64 1430.75 988.348 1435.7 990.005C1439.01 991.64 1440.67 998.244 1440.67 1001.56C1440.67 1009.8 1435.7 1018.06 1435.7 1024.66C1437.35 1029.61 1442.3 1029.61 1445.59 1032.92C1460.46 1056.03 1458.8 1069.23 1462.11 1090.68C1465.43 1117.1 1491.82 1123.7 1490.19 1130.31C1490.19 1131.94 1488.53 1133.6 1485.22 1131.94C1476.98 1123.7 1462.11 1123.7 1450.56 1125.34C1443.96 1125.34 1440.67 1135.25 1432.41 1136.91C1429.11 1138.55 1422.49 1136.91 1420.83 1131.94C1415.91 1125.34 1424.14 1113.79 1419.2 1107.18C1415.91 1102.23 1402.7 1100.58 1402.7 1090.68C1402.7 1064.26 1384.52 1039.53 1377.94 1014.77C1376.28 1008.16 1376.28 1004.85 1377.94 998.244C1382.89 986.693 1386.18 971.849 1377.94 960.297C1374.63 955.327 1392.8 961.931 1399.39 955.327Z" fill="white"/>
<path d="M1434.04 29.3543C1462.12 44.2188 1496.77 97.0311 1514.93 125.084C1523.19 136.636 1534.74 126.739 1529.77 116.845C1501.74 77.2193 1468.72 44.2188 1434.04 29.3543ZM1293.77 463.449C1315.21 468.419 1343.29 489.867 1349.87 509.679C1356.5 529.493 1358.13 541.045 1349.87 598.804C1349.87 602.119 1356.5 605.408 1358.13 598.804C1359.76 583.962 1358.13 598.804 1359.76 592.202C1361.42 582.305 1368.05 583.962 1371.34 588.909C1364.73 569.095 1369.68 550.939 1394.44 552.597C1407.65 554.254 1405.99 564.148 1427.46 569.095C1434.04 570.753 1448.91 565.806 1452.22 554.254C1460.46 529.493 1452.22 508.024 1432.41 491.525C1420.83 481.605 1405.99 476.658 1391.15 486.575C1387.84 489.867 1382.89 499.761 1382.89 504.731C1386.18 526.18 1374.63 519.575 1366.39 504.731C1354.84 486.575 1316.87 460.159 1293.77 463.449ZM1430.75 777.077C1440.67 745.711 1429.12 699.503 1422.49 664.825C1419.2 653.273 1434.04 649.983 1437.36 661.535C1447.25 707.742 1445.59 742.421 1430.75 777.077ZM1485.22 182.867C1481.91 184.501 1468.72 194.418 1460.46 199.365C1478.61 202.657 1503.37 215.864 1514.93 237.335C1523.19 255.492 1529.77 281.886 1533.08 300.042C1533.08 288.491 1531.42 237.336 1536.39 230.731C1544.63 220.814 1561.15 229.074 1572.71 234.021C1580.94 237.336 1585.92 247.23 1594.15 252.177C1602.41 255.492 1610.68 257.124 1618.91 253.834C1627.15 252.177 1635.43 245.572 1638.73 237.335C1643.67 222.469 1628.81 163.052 1595.81 176.262C1582.6 181.209 1580.94 201.022 1569.39 210.917C1562.81 215.864 1556.18 217.522 1547.95 215.864C1539.69 215.864 1529.77 210.917 1521.53 204.312C1509.98 196.076 1498.43 186.156 1485.22 182.867Z" fill="#F57215"/>
<path d="M1414.25 933.878C1419.2 933.878 1425.8 940.483 1424.15 942.14C1420.83 945.432 1419.2 940.483 1412.6 940.483C1407.65 940.483 1402.7 942.14 1402.7 938.828C1402.7 935.536 1407.65 933.878 1414.25 933.878Z" fill="#231F20"/>
<path d="M207.188 890.133L102.597 879.388C106.537 861.076 112.234 846.658 119.677 836.136C127.111 825.636 137.822 816.523 151.814 808.777C161.855 803.225 175.656 798.906 193.229 795.838C210.803 792.794 229.809 791.269 250.248 791.269C283.069 791.269 309.429 793.106 329.329 796.779C349.232 800.449 365.811 808.105 379.086 819.726C388.398 827.784 395.752 839.203 401.137 853.955C406.508 868.732 409.206 882.836 409.206 896.244V1022.18C409.206 1035.61 410.057 1046.11 411.758 1053.72C413.461 1061.33 417.177 1071.03 422.908 1082.85H320.433C316.313 1075.48 313.638 1069.86 312.384 1066.01C311.13 1062.16 309.888 1056.07 308.634 1047.81C294.263 1061.65 279.99 1071.52 265.818 1077.43C246.42 1085.35 223.888 1089.29 198.222 1089.29C164.104 1089.29 138.214 1081.41 120.528 1065.65C102.844 1049.89 94 1030.44 94 1007.31C94 985.64 100.371 967.818 113.119 953.827C125.869 939.857 149.396 929.469 183.693 922.64C224.807 914.401 251.47 908.626 263.682 905.314C275.882 901.999 288.811 897.657 302.467 892.283C302.467 879.03 299.668 869.716 294.093 864.435C288.52 859.105 278.713 856.463 264.677 856.463C246.679 856.463 233.191 859.329 224.191 865.015C217.173 869.471 211.509 877.843 207.188 890.133ZM302.467 947.445C287.333 952.818 271.584 957.543 255.198 961.64C232.865 967.55 218.728 973.371 212.786 979.079C206.663 984.969 203.607 991.684 203.607 999.185C203.607 1007.76 206.617 1014.79 212.65 1020.23C218.684 1025.67 227.549 1028.4 239.256 1028.4C251.502 1028.4 262.886 1025.44 273.431 1019.56C283.963 1013.67 291.441 1006.46 295.851 997.974C300.262 989.489 302.467 978.477 302.467 964.864V947.445Z" fill="#231F20"/>
<path d="M478.157 688.825H587.764V1082.85H478.157V688.825Z" fill="#231F20"/>
<path d="M789.604 688.825V797.718H849.78V877.955H789.604V978.767C789.604 990.878 790.766 998.916 793.107 1002.83C796.699 1008.9 802.992 1011.92 811.989 1011.92C820.084 1011.92 831.411 1009.59 845.983 1004.98L854.078 1080.43C826.989 1086.34 801.692 1089.29 778.208 1089.29C750.94 1089.29 730.85 1085.8 717.932 1078.86C705.014 1071.88 695.466 1061.31 689.277 1047.12C683.087 1032.92 679.997 1009.91 679.997 978.117V877.955H639.88V797.718H679.997V745.151L789.604 688.825Z" fill="#231F20"/>
<path d="M478.259 1141.05H587.866V1535.08H478.259V1141.05Z" fill="#231F20"/>
<path d="M662.188 1141.05H771.793V1215.56H662.188V1141.05ZM662.188 1249.95H771.793V1535.08H662.188V1249.95Z" fill="#231F20"/>
<path d="M841.104 1249.95H943.164V1296.58C958.365 1277.53 973.733 1263.92 989.292 1255.77C1004.85 1247.57 1023.8 1243.5 1046.16 1243.5C1076.36 1243.5 1100.01 1252.5 1117.09 1270.5C1134.16 1288.48 1142.7 1316.26 1142.7 1353.85V1535.08H1033.09V1378.52C1033.09 1360.65 1029.78 1348 1023.16 1340.6C1016.54 1333.18 1007.23 1329.47 995.259 1329.47C982.016 1329.47 971.283 1334.48 963.055 1344.47C954.816 1354.5 950.708 1372.45 950.708 1398.38V1535.08H841.104V1249.95Z" fill="#231F20"/>
<path d="M1508.95 1535.08H1406.62V1488.96C1391.42 1507.92 1376.08 1521.42 1360.61 1529.45C1345.14 1537.49 1326.16 1541.52 1303.64 1541.52C1273.6 1541.52 1250.03 1532.52 1232.96 1514.55C1215.88 1496.57 1207.35 1468.85 1207.35 1431.44V1249.95H1316.96V1406.84C1316.96 1424.75 1320.26 1437.46 1326.89 1444.99C1333.5 1452.51 1342.8 1456.27 1354.79 1456.27C1367.84 1456.27 1378.53 1451.26 1386.86 1441.23C1395.18 1431.2 1399.34 1413.2 1399.34 1387.23V1249.95H1508.95V1535.08Z" fill="#231F20"/>
<path d="M1551.39 1249.95H1681.06L1725.83 1329.42L1778.48 1249.95H1898.84L1801.73 1385.79L1906 1535.08H1778.48L1725.83 1443.24L1663.86 1535.08H1545.66L1649.31 1385.79L1551.39 1249.95Z" fill="#231F20"/>
</svg>
