<?xml version="1.0" encoding="UTF-8" standalone="no"?>
<svg
   version="1.0"
   width="128"
   height="128"
   viewBox="0 0 1280 1280"
   preserveAspectRatio="xMidYMid meet"
   id="svg11"
   sodipodi:docname="ataraxia.svg"
   inkscape:version="1.1.1 (3bf5ae0d25, 2021-09-20)"
   xmlns:inkscape="http://www.inkscape.org/namespaces/inkscape"
   xmlns:sodipodi="http://sodipodi.sourceforge.net/DTD/sodipodi-0.dtd"
   xmlns="http://www.w3.org/2000/svg"
   xmlns:svg="http://www.w3.org/2000/svg">
  <defs
     id="defs15" />
  <sodipodi:namedview
     id="namedview13"
     pagecolor="#ffffff"
     bordercolor="#666666"
     borderopacity="1.0"
     inkscape:pageshadow="2"
     inkscape:pageopacity="0.0"
     inkscape:pagecheckerboard="0"
     showgrid="false"
     inkscape:zoom="2.91"
     inkscape:cx="149.82818"
     inkscape:cy="149.82818"
     inkscape:window-width="2560"
     inkscape:window-height="1401"
     inkscape:window-x="0"
     inkscape:window-y="0"
     inkscape:window-maximized="1"
     inkscape:current-layer="svg11" />
  <g
     id="layer101"
     fill="#FFF"
     stroke="none"
     transform="matrix(0.34715365,0,0,0.34715365,119.00943,122.17363)">
    <path
       d="m 1438,2844 c -40,-21 -58,-63 -58,-137 0,-77 31,-146 170,-377 102,-169 155,-286 166,-367 8,-61 12,-59 -130,-66 -155,-8 -246,-74 -246,-180 v -49 l 37,7 c 21,4 64,18 96,31 50,21 74,25 165,25 100,0 107,-2 131,-25 22,-23 25,-35 29,-121 5,-112 -5,-143 -59,-186 -72,-56 -47,-73 103,-71 116,1 171,15 205,48 34,34 27,82 -26,185 -63,120 -52,136 49,74 109,-66 167,-88 216,-80 25,3 57,17 74,31 25,22 30,33 30,70 0,40 -4,47 -39,72 -51,37 -98,54 -261,96 -119,31 -138,39 -162,67 -36,43 -68,134 -134,378 -73,274 -117,402 -165,484 -59,99 -122,129 -191,91 z"
       id="path2" />
    <path
       d="m 2358,2840 c -165,-20 -270,-85 -320,-197 -11,-25 -21,-78 -25,-127 -10,-142 13,-176 56,-83 35,73 114,150 176,170 61,20 93,21 320,12 163,-6 183,-5 215,12 64,33 77,114 27,161 -47,44 -94,56 -242,58 -77,1 -170,-1 -207,-6 z"
       id="path4" />
    <path
       d="m 2370,2163 c 0,-4 23,-31 52,-60 71,-72 65,-77 -120,-83 -130,-4 -147,-7 -150,-23 -3,-13 13,-25 61,-47 86,-41 182,-60 303,-60 121,0 192,19 242,64 32,29 36,40 40,92 3,47 1,63 -12,73 -30,25 -416,65 -416,44 z"
       id="path6" />
    <path
       d="m 802,1669 c 2,-7 55,-32 117,-56 248,-94 384,-199 454,-353 29,-63 30,-223 3,-295 -40,-104 -114,-177 -183,-179 -35,-1 -38,2 -76,68 -21,38 -74,115 -117,173 -43,57 -91,129 -106,159 -25,52 -26,59 -16,106 18,76 15,125 -8,148 -28,28 -85,26 -134,-4 l -39,-23 -69,44 c -125,81 -169,96 -294,101 -110,4 -111,4 -132,-22 -28,-36 -44,-119 -36,-186 20,-169 125,-310 339,-456 130,-89 129,-89 133,-200 l 4,-94 H 507 c -132,0 -135,0 -174,-29 -68,-50 -123,-191 -74,-191 10,0 45,12 77,27 56,26 67,28 199,28 h 140 l 3,-102 3,-103 -48,-22 c -54,-26 -63,-35 -56,-54 15,-40 184,-41 274,-2 76,32 89,79 44,153 -55,88 -16,98 133,33 79,-34 111,-43 174,-46 72,-4 79,-2 102,22 55,54 18,129 -80,166 -31,11 -122,32 -202,46 -206,36 -206,36 -226,123 -9,38 -16,75 -16,80 0,6 21,11 46,11 62,0 224,-39 224,-53 -1,-7 -7,-23 -15,-37 -21,-37 -18,-50 11,-50 17,0 44,17 82,53 43,41 77,61 142,87 237,92 337,200 356,382 14,141 -32,264 -136,361 -127,120 -308,182 -569,194 -102,5 -123,4 -119,-8 z M 510,1331 c 30,-11 70,-30 89,-42 32,-19 33,-22 27,-67 -3,-26 -9,-83 -12,-127 -8,-127 -12,-145 -34,-145 -23,0 -154,142 -192,208 -33,56 -53,139 -44,177 7,27 9,27 59,22 29,-3 77,-15 107,-26 z m 339,-238 c 16,-20 44,-64 62,-97 18,-34 49,-86 69,-116 47,-70 73,-120 66,-128 -11,-11 -177,20 -218,42 -33,16 -44,29 -51,56 -10,38 -4,250 7,269 13,20 34,12 65,-26 z"
       id="path8" />
  </g>
</svg>
