<?xml version="1.0" encoding="UTF-8" standalone="no"?>
<svg
   xmlns:dc="http://purl.org/dc/elements/1.1/"
   xmlns:cc="http://creativecommons.org/ns#"
   xmlns:rdf="http://www.w3.org/1999/02/22-rdf-syntax-ns#"
   xmlns:svg="http://www.w3.org/2000/svg"
   xmlns="http://www.w3.org/2000/svg"
   xmlns:xlink="http://www.w3.org/1999/xlink"
   xmlns:sodipodi="http://sodipodi.sourceforge.net/DTD/sodipodi-0.dtd"
   xmlns:inkscape="http://www.inkscape.org/namespaces/inkscape"
   viewBox="1 1 128 128"
   version="1.1"
   id="svg137"
   sodipodi:docname="chrome-os.svg"
   width="128"
   height="128"
   inkscape:version="0.92.2 2405546, 2018-03-11">
  <metadata
     id="metadata141">
    <rdf:RDF>
      <cc:Work
         rdf:about="">
        <dc:format>image/svg+xml</dc:format>
        <dc:type
           rdf:resource="http://purl.org/dc/dcmitype/StillImage" />
        <dc:title></dc:title>
      </cc:Work>
    </rdf:RDF>
  </metadata>
  <sodipodi:namedview
     pagecolor="#ffffff"
     bordercolor="#666666"
     borderopacity="1"
     objecttolerance="10"
     gridtolerance="10"
     guidetolerance="10"
     inkscape:pageopacity="0"
     inkscape:pageshadow="2"
     inkscape:window-width="1920"
     inkscape:window-height="1016"
     id="namedview139"
     showgrid="false"
     showborder="true"
     inkscape:showpageshadow="false"
     inkscape:zoom="1.3409091"
     inkscape:cx="89.491525"
     inkscape:cy="88"
     inkscape:window-x="0"
     inkscape:window-y="27"
     inkscape:window-maximized="1"
     inkscape:current-layer="svg137" />
  <defs
     id="defs3">
    <circle
       id="a"
       cy="96"
       cx="96"
       r="88" />
    <clipPath
       id="b-8">
      <use
         y="0"
         x="0"
         style="overflow:visible"
         width="100%"
         overflow="visible"
         xlink:href="#a"
         height="100%"
         id="use5-1" />
    </clipPath>
    <linearGradient
       inkscape:collect="always"
       xlink:href="#c"
       id="linearGradient1308-0"
       gradientUnits="userSpaceOnUse"
       x1="29.337"
       y1="75.021004"
       x2="81.836998"
       y2="44.354" />
    <linearGradient
       x1="29.337"
       x2="81.836998"
       y1="75.021004"
       gradientUnits="userSpaceOnUse"
       y2="44.354"
       id="linearGradient2045">
      <stop
         id="stop10-3"
         offset="0"
         stop-opacity=".6"
         stop-color="#A52714" />
      <stop
         id="stop12-0"
         offset=".66"
         stop-opacity="0"
         stop-color="#A52714" />
    </linearGradient>
    <clipPath
       id="clipPath1749">
      <use
         y="0"
         x="0"
         style="overflow:visible"
         width="100%"
         overflow="visible"
         xlink:href="#a"
         height="100%"
         id="use1747" />
    </clipPath>
    <clipPath
       id="clipPath1753">
      <use
         y="0"
         x="0"
         style="overflow:visible"
         width="100%"
         overflow="visible"
         xlink:href="#a"
         height="100%"
         id="use1751" />
    </clipPath>
    <linearGradient
       inkscape:collect="always"
       xlink:href="#d"
       id="linearGradient1310-4"
       gradientUnits="userSpaceOnUse"
       x1="110.87"
       y1="164.5"
       x2="52.537998"
       y2="130.33" />
    <linearGradient
       x1="110.87"
       x2="52.537998"
       y1="164.5"
       gradientUnits="userSpaceOnUse"
       y2="130.33"
       id="linearGradient2054">
      <stop
         id="stop23-4"
         offset="0"
         stop-opacity=".4"
         stop-color="#055524" />
      <stop
         id="stop25-4"
         offset=".33"
         stop-opacity="0"
         stop-color="#055524" />
    </linearGradient>
    <clipPath
       id="clipPath1761">
      <use
         y="0"
         x="0"
         style="overflow:visible"
         width="100%"
         overflow="visible"
         xlink:href="#a"
         height="100%"
         id="use1759" />
    </clipPath>
    <clipPath
       id="clipPath1765">
      <use
         y="0"
         x="0"
         style="overflow:visible"
         width="100%"
         overflow="visible"
         xlink:href="#a"
         height="100%"
         id="use1763" />
    </clipPath>
    <clipPath
       id="f-4">
      <path
         inkscape:connector-curvature="0"
         id="use37-7"
         d="m 8,184 h 83.77 l 38.88,-38.88 V 116 H 61.36 L 8,24.48 Z" />
    </clipPath>
    <linearGradient
       inkscape:collect="always"
       xlink:href="#g"
       id="linearGradient1312-6"
       gradientUnits="userSpaceOnUse"
       x1="121.86"
       y1="49.804001"
       x2="136.55"
       y2="114.13" />
    <linearGradient
       x1="121.86"
       x2="136.55"
       y1="49.804001"
       gradientUnits="userSpaceOnUse"
       y2="114.13"
       id="linearGradient2065">
      <stop
         id="stop42-3"
         offset="0"
         stop-opacity=".3"
         stop-color="#EA6100" />
      <stop
         id="stop44-1"
         offset=".66"
         stop-opacity="0"
         stop-color="#EA6100" />
    </linearGradient>
    <clipPath
       id="clipPath1775">
      <use
         y="0"
         x="0"
         style="overflow:visible"
         width="100%"
         overflow="visible"
         xlink:href="#a"
         height="100%"
         id="use1773" />
    </clipPath>
    <clipPath
       id="clipPath1786">
      <use
         y="0"
         x="0"
         style="overflow:visible"
         width="100%"
         overflow="visible"
         xlink:href="#a"
         height="100%"
         id="use1784" />
    </clipPath>
    <clipPath
       id="j-5">
      <path
         inkscape:connector-curvature="0"
         id="use62-9"
         d="m 96,56 34.65,60 -38.88,68 H 184 V 56 Z" />
    </clipPath>
    <radialGradient
       id="l-2"
       gradientUnits="userSpaceOnUse"
       cy="55.948002"
       cx="668.17999"
       gradientTransform="translate(-576)"
       r="84.078003">
      <stop
         stop-color="#3E2723"
         stop-opacity=".2"
         offset="0"
         id="stop73-1" />
      <stop
         stop-color="#3E2723"
         stop-opacity="0"
         offset="1"
         id="stop75-7" />
    </radialGradient>
    <clipPath
       id="clipPath1802">
      <use
         y="0"
         x="0"
         style="overflow:visible"
         width="100%"
         overflow="visible"
         xlink:href="#a"
         height="100%"
         id="use1800" />
    </clipPath>
    <clipPath
       id="clipPath1806">
      <use
         y="0"
         x="0"
         style="overflow:visible"
         width="100%"
         overflow="visible"
         xlink:href="#a"
         height="100%"
         id="use1804" />
    </clipPath>
    <clipPath
       id="n-8">
      <path
         inkscape:connector-curvature="0"
         id="use83-5"
         d="M 21.97,8 V 48.34 L 61.36,116 96,56 h 88 V 8 Z" />
    </clipPath>
    <radialGradient
       id="p-4"
       gradientUnits="userSpaceOnUse"
       cy="48.52"
       cx="597.88"
       gradientTransform="translate(-576)"
       r="78.043999">
      <stop
         stop-color="#3E2723"
         stop-opacity=".2"
         offset="0"
         id="stop94-1" />
      <stop
         stop-color="#3E2723"
         stop-opacity="0"
         offset="1"
         id="stop96-8" />
    </radialGradient>
    <clipPath
       id="clipPath1822">
      <use
         y="0"
         x="0"
         style="overflow:visible"
         width="100%"
         overflow="visible"
         xlink:href="#a"
         height="100%"
         id="use1820" />
    </clipPath>
    <radialGradient
       id="q-5"
       gradientUnits="userSpaceOnUse"
       cy="96.138"
       cx="671.84003"
       gradientTransform="translate(-576)"
       r="87.870003">
      <stop
         stop-color="#263238"
         stop-opacity=".2"
         offset="0"
         id="stop101-9" />
      <stop
         stop-color="#263238"
         stop-opacity="0"
         offset="1"
         id="stop103-7" />
    </radialGradient>
    <clipPath
       id="clipPath1829">
      <use
         y="0"
         x="0"
         style="overflow:visible"
         width="100%"
         overflow="visible"
         xlink:href="#a"
         height="100%"
         id="use1827" />
    </clipPath>
    <clipPath
       id="clipPath1833">
      <use
         y="0"
         x="0"
         style="overflow:visible"
         width="100%"
         overflow="visible"
         xlink:href="#a"
         height="100%"
         id="use1831" />
    </clipPath>
    <clipPath
       id="clipPath1837">
      <use
         y="0"
         x="0"
         style="overflow:visible"
         width="100%"
         overflow="visible"
         xlink:href="#a"
         height="100%"
         id="use1835" />
    </clipPath>
    <clipPath
       id="clipPath1841">
      <use
         y="0"
         x="0"
         style="overflow:visible"
         width="100%"
         overflow="visible"
         xlink:href="#a"
         height="100%"
         id="use1839" />
    </clipPath>
    <radialGradient
       id="r-5"
       gradientUnits="userSpaceOnUse"
       cy="32.014"
       cx="34.285999"
       gradientTransform="matrix(0.64772725,0,0,0.64772725,55.479197,-12.554694)"
       r="176.75">
      <stop
         stop-color="#fff"
         stop-opacity=".1"
         offset="0"
         id="stop130-3" />
      <stop
         stop-color="#fff"
         stop-opacity="0"
         offset="1"
         id="stop132-8" />
    </radialGradient>
    <path
       inkscape:connector-curvature="0"
       id="path1641"
       d="m 8,184 h 83.77 l 38.88,-38.88 V 116 H 61.36 L 8,24.48 Z" />
    <path
       inkscape:connector-curvature="0"
       id="path1669"
       d="m 96,56 34.65,60 -38.88,68 H 184 V 56 Z" />
    <path
       inkscape:connector-curvature="0"
       id="path1687"
       d="M 21.97,8 V 48.34 L 61.36,116 96,56 h 88 V 8 Z" />
    <linearGradient
       inkscape:collect="always"
       xlink:href="#c"
       id="linearGradient2167"
       gradientUnits="userSpaceOnUse"
       x1="29.337"
       y1="75.021004"
       x2="81.836998"
       y2="44.354" />
    <linearGradient
       inkscape:collect="always"
       xlink:href="#d"
       id="linearGradient2169"
       gradientUnits="userSpaceOnUse"
       x1="110.87"
       y1="164.5"
       x2="52.537998"
       y2="130.33" />
    <linearGradient
       inkscape:collect="always"
       xlink:href="#g"
       id="linearGradient2171"
       gradientUnits="userSpaceOnUse"
       x1="121.86"
       y1="49.804001"
       x2="136.55"
       y2="114.13" />
  </defs>
  <clipPath
     id="b">
    <use
       width="100%"
       overflow="visible"
       xlink:href="#a"
       height="100%"
       id="use5"
       style="overflow:visible"
       x="0"
       y="0" />
  </clipPath>
  <radialGradient
     id="l"
     gradientUnits="userSpaceOnUse"
     cy="55.948002"
     cx="668.17999"
     gradientTransform="translate(-576)"
     r="84.078003">
    <stop
       stop-color="#3E2723"
       stop-opacity=".2"
       offset="0"
       id="stop73" />
    <stop
       stop-color="#3E2723"
       stop-opacity="0"
       offset="1"
       id="stop75" />
  </radialGradient>
  <radialGradient
     id="p"
     gradientUnits="userSpaceOnUse"
     cy="48.52"
     cx="597.88"
     gradientTransform="translate(-576)"
     r="78.043999">
    <stop
       stop-color="#3E2723"
       stop-opacity=".2"
       offset="0"
       id="stop94" />
    <stop
       stop-color="#3E2723"
       stop-opacity="0"
       offset="1"
       id="stop96" />
  </radialGradient>
  <radialGradient
     id="q"
     gradientUnits="userSpaceOnUse"
     cy="96.138"
     cx="671.84003"
     gradientTransform="translate(-576)"
     r="87.870003">
    <stop
       stop-color="#263238"
       stop-opacity=".2"
       offset="0"
       id="stop101" />
    <stop
       stop-color="#263238"
       stop-opacity="0"
       offset="1"
       id="stop103" />
  </radialGradient>
  <radialGradient
     id="r"
     gradientUnits="userSpaceOnUse"
     cy="32.014"
     cx="34.285999"
     gradientTransform="translate(-7,-7)"
     r="176.75">
    <stop
       stop-color="#fff"
       stop-opacity=".1"
       offset="0"
       id="stop130" />
    <stop
       stop-color="#fff"
       stop-opacity="0"
       offset="1"
       id="stop132" />
  </radialGradient>
  <g
     id="g3131"
     transform="matrix(0.82456143,0,0,0.82456143,-32.018733,24.079389)"
     style="stroke-width:1.21276593">
    <g
       style="stroke-width:1.87234044"
       transform="matrix(0.64772725,0,0,0.64772725,55.479197,-12.554694)"
       clip-path="url(#b-8)"
       id="g1623">
      <path
         style="fill:#db4437;stroke-width:1.87234044"
         inkscape:connector-curvature="0"
         d="M 21.97,8 V 116 H 61.36 L 96,56 h 88 V 8 Z"
         id="path1613" />
      <linearGradient
         id="linearGradient1619"
         y2="44.354"
         gradientUnits="userSpaceOnUse"
         y1="75.021004"
         x2="81.836998"
         x1="29.337">
        <stop
           stop-color="#A52714"
           stop-opacity=".6"
           offset="0"
           id="stop1615" />
        <stop
           stop-color="#A52714"
           stop-opacity="0"
           offset=".66"
           id="stop1617" />
      </linearGradient>
      <path
         inkscape:connector-curvature="0"
         style="fill:url(#linearGradient2167);stroke-width:1.87234044"
         d="M 21.97,8 V 116 H 61.36 L 96,56 h 88 V 8 Z"
         id="path1621" />
    </g>
    <path
       style="fill:#3e2723;fill-opacity:0.15;stroke-width:1.87234044"
       inkscape:connector-curvature="0"
       clip-path="url(#b-8)"
       d="m 62.31,115.65 -39.83,-68.31 -0.58,1 39.54,67.8 z"
       transform="matrix(0.64772725,0,0,0.64772725,55.479197,-12.554694)"
       id="path1625" />
    <g
       style="stroke-width:1.87234044"
       transform="matrix(0.64772725,0,0,0.64772725,55.479197,-12.554694)"
       clip-path="url(#b-8)"
       id="g1637">
      <path
         style="fill:#0f9d58;stroke-width:1.87234044"
         inkscape:connector-curvature="0"
         d="m 8,184 h 83.77 l 38.88,-38.88 V 116 H 61.36 L 8,24.48 Z"
         id="path1627" />
      <linearGradient
         id="linearGradient1633"
         y2="130.33"
         gradientUnits="userSpaceOnUse"
         y1="164.5"
         x2="52.537998"
         x1="110.87">
        <stop
           stop-color="#055524"
           stop-opacity=".4"
           offset="0"
           id="stop1629" />
        <stop
           stop-color="#055524"
           stop-opacity="0"
           offset=".33"
           id="stop1631" />
      </linearGradient>
      <path
         inkscape:connector-curvature="0"
         style="fill:url(#linearGradient2169);stroke-width:1.87234044"
         d="m 8,184 h 83.77 l 38.88,-38.88 V 116 H 61.36 L 8,24.48 Z"
         id="path1635" />
    </g>
    <path
       style="fill:#263238;fill-opacity:0.15;stroke-width:1.87234044"
       inkscape:connector-curvature="0"
       clip-path="url(#b-8)"
       d="M 129.84,117.33 129.01,116.85 90.62,184 h 1.15 l 38.1,-66.64 z"
       transform="matrix(0.64772725,0,0,0.64772725,55.479197,-12.554694)"
       id="path1639" />
    <g
       style="stroke-width:1.87234044"
       transform="matrix(0.64772725,0,0,0.64772725,55.479197,-12.554694)"
       clip-path="url(#b-8)"
       id="g1661">
      <defs
         id="defs1643">
        <path
           inkscape:connector-curvature="0"
           id="path2118"
           d="m 8,184 h 83.77 l 38.88,-38.88 V 116 H 61.36 L 8,24.48 Z" />
      </defs>
      <clipPath
         id="clipPath1647">
        <path
           inkscape:connector-curvature="0"
           id="use1645"
           d="m 8,184 h 83.77 l 38.88,-38.88 V 116 H 61.36 L 8,24.48 Z" />
      </clipPath>
      <g
         style="stroke-width:1.87234044"
         clip-path="url(#f-4)"
         id="g1659">
        <path
           style="fill:#ffcd40;stroke-width:1.87234044"
           inkscape:connector-curvature="0"
           d="m 96,56 34.65,60 -38.88,68 H 184 V 56 Z"
           id="path1649" />
        <linearGradient
           id="linearGradient1655"
           y2="114.13"
           gradientUnits="userSpaceOnUse"
           y1="49.804001"
           x2="136.55"
           x1="121.86">
          <stop
             stop-color="#EA6100"
             stop-opacity=".3"
             offset="0"
             id="stop1651" />
          <stop
             stop-color="#EA6100"
             stop-opacity="0"
             offset=".66"
             id="stop1653" />
        </linearGradient>
        <path
           inkscape:connector-curvature="0"
           style="fill:url(#linearGradient2171);stroke-width:1.87234044"
           d="m 96,56 34.65,60 -38.88,68 H 184 V 56 Z"
           id="path1657" />
      </g>
    </g>
    <g
       style="stroke-width:1.87234044"
       transform="matrix(0.64772725,0,0,0.64772725,55.479197,-12.554694)"
       clip-path="url(#b-8)"
       id="g1667">
      <path
         style="fill:#ffcd40;stroke-width:1.87234044"
         inkscape:connector-curvature="0"
         d="m 96,56 34.65,60 -38.88,68 H 184 V 56 Z"
         id="path1663" />
      <path
         inkscape:connector-curvature="0"
         style="fill:url(#linearGradient1312-6);stroke-width:1.87234044"
         d="m 96,56 34.65,60 -38.88,68 H 184 V 56 Z"
         id="path1665" />
    </g>
    <g
       style="stroke-width:1.87234044"
       transform="matrix(0.64772725,0,0,0.64772725,55.479197,-12.554694)"
       clip-path="url(#b-8)"
       id="g1683">
      <defs
         id="defs1671">
        <path
           inkscape:connector-curvature="0"
           id="path2133"
           d="m 96,56 34.65,60 -38.88,68 H 184 V 56 Z" />
      </defs>
      <clipPath
         id="clipPath1675">
        <path
           inkscape:connector-curvature="0"
           id="use1673"
           d="m 96,56 34.65,60 -38.88,68 H 184 V 56 Z" />
      </clipPath>
      <g
         style="stroke-width:1.87234044"
         clip-path="url(#j-5)"
         id="g1681">
        <path
           style="fill:#db4437;stroke-width:1.87234044"
           inkscape:connector-curvature="0"
           d="M 21.97,8 V 116 H 61.36 L 96,56 h 88 V 8 Z"
           id="path1677" />
        <path
           inkscape:connector-curvature="0"
           style="fill:url(#linearGradient1308-0);stroke-width:1.87234044"
           d="M 21.97,8 V 116 H 61.36 L 96,56 h 88 V 8 Z"
           id="path1679" />
      </g>
    </g>
    <path
       inkscape:connector-curvature="0"
       style="fill:url(#l-2);stroke-width:1.87234044"
       clip-path="url(#b-8)"
       d="M 96,56 V 76.95 L 174.4,56 Z"
       transform="matrix(0.64772725,0,0,0.64772725,55.479197,-12.554694)"
       id="path1685" />
    <g
       style="stroke-width:1.87234044"
       transform="matrix(0.64772725,0,0,0.64772725,55.479197,-12.554694)"
       clip-path="url(#b-8)"
       id="g1701">
      <defs
         id="defs1689">
        <path
           inkscape:connector-curvature="0"
           id="path2143"
           d="M 21.97,8 V 48.34 L 61.36,116 96,56 h 88 V 8 Z" />
      </defs>
      <clipPath
         id="clipPath1693">
        <path
           inkscape:connector-curvature="0"
           id="use1691"
           d="M 21.97,8 V 48.34 L 61.36,116 96,56 h 88 V 8 Z" />
      </clipPath>
      <g
         style="stroke-width:1.87234044"
         clip-path="url(#n-8)"
         id="g1699">
        <path
           style="fill:#0f9d58;stroke-width:1.87234044"
           inkscape:connector-curvature="0"
           d="m 8,184 h 83.77 l 38.88,-38.88 V 116 H 61.36 L 8,24.48 Z"
           id="path1695" />
        <path
           inkscape:connector-curvature="0"
           style="fill:url(#linearGradient1310-4);stroke-width:1.87234044"
           d="m 8,184 h 83.77 l 38.88,-38.88 V 116 H 61.36 L 8,24.48 Z"
           id="path1697" />
      </g>
    </g>
    <path
       inkscape:connector-curvature="0"
       style="fill:url(#p-4);stroke-width:1.87234044"
       clip-path="url(#b-8)"
       d="M 21.97,48.45 79.22,105.69 61.36,116 Z"
       transform="matrix(0.64772725,0,0,0.64772725,55.479197,-12.554694)"
       id="path1703" />
    <path
       inkscape:connector-curvature="0"
       style="fill:url(#q-5);stroke-width:1.87234044"
       clip-path="url(#b-8)"
       d="m 91.83,183.89 20.96,-78.2 17.86,10.31 z"
       transform="matrix(0.64772725,0,0,0.64772725,55.479197,-12.554694)"
       id="path1705" />
    <g
       style="stroke-width:1.87234044"
       transform="matrix(0.64772725,0,0,0.64772725,55.479197,-12.554694)"
       clip-path="url(#b-8)"
       id="g1711">
      <circle
         style="fill:#f1f1f1;stroke-width:1.87234044"
         cy="96"
         cx="96"
         r="40"
         id="circle1707" />
      <circle
         style="fill:#4285f4;stroke-width:1.87234044"
         cy="96"
         cx="96"
         r="32"
         id="circle1709" />
    </g>
    <g
       style="stroke-width:1.87234044"
       transform="matrix(0.64772725,0,0,0.64772725,55.479197,-12.554694)"
       clip-path="url(#b-8)"
       id="g1721">
      <path
         style="fill:#3e2723;fill-opacity:0.2;stroke-width:1.87234044"
         inkscape:connector-curvature="0"
         d="M 96,55 C 73.91,55 56,72.91 56,95 v 1 C 56,73.91 73.91,56 96,56 h 88 v -1 z"
         id="path1713" />
      <path
         style="fill:#ffffff;fill-opacity:0.1;stroke-width:1.87234044"
         inkscape:connector-curvature="0"
         d="m 130.6,116 c -6.92,11.94 -19.81,20 -34.6,20 -14.8,0 -27.69,-8.06 -34.61,-20 H 61.35 L 8,24.48 v 1 L 61.36,117 h 0.04 c 6.92,11.94 19.81,20 34.61,20 14.79,0 27.68,-8.05 34.6,-20 h 0.05 v -1 z"
         id="path1715" />
      <path
         style="opacity:0.1;fill:#3e2723;stroke-width:1.87234044"
         inkscape:connector-curvature="0"
         d="m 97,56 c -0.17,0 -0.33,0.02 -0.5,0.03 21.86,0.27 39.5,18.05 39.5,39.97 0,21.92 -17.64,39.7 -39.5,39.97 0.17,0 0.33,0.03 0.5,0.03 22.09,0 40,-17.91 40,-40 0,-22.09 -17.91,-40 -40,-40 z"
         id="path1717" />
      <path
         style="fill:#ffffff;fill-opacity:0.2;stroke-width:1.87234044"
         inkscape:connector-curvature="0"
         d="m 131,117.33 c 3.4,-5.88 5.37,-12.68 5.37,-19.96 0,-4.22 -0.66,-8.28 -1.87,-12.09 0.95,3.42 1.5,7.01 1.5,10.73 0,7.28 -1.97,14.08 -5.37,19.96 l 0.02,0.04 -38.88,68 h 1.16 l 38.09,-66.64 z"
         id="path1719" />
    </g>
    <g
       style="stroke-width:1.87234044"
       transform="matrix(0.64772725,0,0,0.64772725,55.479197,-12.554694)"
       clip-path="url(#b-8)"
       id="g1727">
      <path
         style="fill:#ffffff;fill-opacity:0.2;stroke-width:1.87234044"
         inkscape:connector-curvature="0"
         d="m 96,9 c 48.43,0 87.72,39.13 87.99,87.5 0,-0.17 0.01,-0.33 0.01,-0.5 C 184,47.4 144.6,8 96,8 47.4,8 8,47.4 8,96 8,96.17 8.01,96.33 8.01,96.5 8.28,48.13 47.57,9 96,9 Z"
         id="path1723" />
      <path
         style="fill:#3e2723;fill-opacity:0.15;stroke-width:1.87234044"
         inkscape:connector-curvature="0"
         d="m 96,183 c 48.43,0 87.72,-39.13 87.99,-87.5 0,0.17 0.01,0.33 0.01,0.5 0,48.6 -39.4,88 -88,88 C 47.4,184 8,144.6 8,96 8,95.83 8.01,95.67 8.01,95.5 8.28,143.87 47.57,183 96,183 Z"
         id="path1725" />
    </g>
    <circle
       style="fill:url(#r-5);stroke-width:1.21276593"
       cy="49.627121"
       cx="117.66101"
       r="56.999996"
       id="circle1729" />
  </g>
</svg>
