<?xml version="1.0" encoding="UTF-8" standalone="no"?>
<!-- Created with Inkscape (http://www.inkscape.org/) -->

<svg
   xmlns:dc="http://purl.org/dc/elements/1.1/"
   xmlns:cc="http://creativecommons.org/ns#"
   xmlns:rdf="http://www.w3.org/1999/02/22-rdf-syntax-ns#"
   xmlns:svg="http://www.w3.org/2000/svg"
   xmlns="http://www.w3.org/2000/svg"
   xmlns:sodipodi="http://sodipodi.sourceforge.net/DTD/sodipodi-0.dtd"
   xmlns:inkscape="http://www.inkscape.org/namespaces/inkscape"
   width="128"
   height="128"
   viewBox="0 0 128 128.00001"
   version="1.1"
   id="svg17226"
   inkscape:version="0.92.2 5c3e80d, 2017-08-06"
   sodipodi:docname="endless.svg">
  <defs
     id="defs17220" />
  <sodipodi:namedview
     id="base"
     pagecolor="#ffffff"
     bordercolor="#666666"
     borderopacity="1.0"
     inkscape:pageopacity="0.0"
     inkscape:pageshadow="2"
     inkscape:zoom="1.979899"
     inkscape:cx="-13.077613"
     inkscape:cy="87.69764"
     inkscape:document-units="px"
     inkscape:current-layer="layer1"
     showgrid="false"
     units="px"
     showguides="true"
     inkscape:guide-bbox="true"
     inkscape:window-width="3440"
     inkscape:window-height="1376"
     inkscape:window-x="0"
     inkscape:window-y="27"
     inkscape:window-maximized="1">
    <sodipodi:guide
       position="19.435267,28.015154"
       orientation="1,0"
       id="guide17789"
       inkscape:locked="false" />
    <sodipodi:guide
       position="106.57109,-18.687824"
       orientation="1,0"
       id="guide17791"
       inkscape:locked="false" />
  </sodipodi:namedview>
  <metadata
     id="metadata17223">
    <rdf:RDF>
      <cc:Work
         rdf:about="">
        <dc:format>image/svg+xml</dc:format>
        <dc:type
           rdf:resource="http://purl.org/dc/dcmitype/StillImage" />
        <dc:title></dc:title>
      </cc:Work>
    </rdf:RDF>
  </metadata>
  <g
     inkscape:label="Layer 1"
     inkscape:groupmode="layer"
     id="layer1"
     transform="translate(0,-994.5197)">
    <g
       style="stroke-width:3.94501376"
       transform="matrix(0.38022685,0,0,0.38022685,-94.987166,970.70557)"
       id="g1124">
      <path
         inkscape:connector-curvature="0"
         id="path1122"
         d="m 530.9,213.4 c -19.7,-11.3 -58,2.7 -92.3,20.1 -8.8,-4.1 -17.5,-8.2 -26,-12.1 25.1,-14 45.5,-27.8 50.4,-31.2 3.3,-2.3 4.1,-6.8 1.9,-10.1 -2.3,-3.3 -6.8,-4.1 -10.1,-1.8 -16.4,11.3 -37.5,24.4 -58.8,35.6 -40.8,-17.8 -75.6,-28.9 -93.7,-18.4 -5.2,3 -11.6,9.3 -12.5,22.2 -1.5,19.8 6.6,28.7 13.6,32.7 19.7,11.3 58,-2.7 92.3,-20.1 8.8,4.1 17.5,8.2 26,12.1 -25.1,14 -45.5,27.8 -50.4,31.2 -3.3,2.3 -4.1,6.8 -1.8,10.1 2.3,3.3 6.8,4.1 10.1,1.8 16.4,-11.3 37.5,-24.4 58.8,-35.6 40.8,17.8 75.6,28.9 93.7,18.4 5.2,-3 11.6,-9.3 12.5,-22.2 1.4,-19.8 -6.6,-28.7 -13.7,-32.7 z M 310.6,238 c -1.9,-1.1 -7.5,-4.3 -6.4,-19.1 0.5,-7.2 3.3,-9.6 5.4,-10.8 4.4,-2.6 11.3,-2.9 19.9,-1.5 13.3,2.1 30.7,8.2 49.5,15.9 -29.3,13.9 -56.3,22.4 -68.4,15.5 z m 219.5,7 c -0.5,7.2 -3.3,9.6 -5.4,10.8 -4.4,2.6 -11.3,2.9 -19.9,1.5 -13.3,-2.1 -30.7,-8.2 -49.5,-15.9 29.3,-13.9 56.4,-22.4 68.4,-15.5 1.9,1.1 7.5,4.3 6.4,19.1 z"
         class="st0"
         style="fill:#ea5b0c;stroke-width:3.94501376" />
    </g>
  </g>
</svg>
