<?xml version="1.0" encoding="UTF-8" standalone="no"?>
<!-- Created with Inkscape (http://www.inkscape.org/) -->

<svg
   xmlns:dc="http://purl.org/dc/elements/1.1/"
   xmlns:cc="http://creativecommons.org/ns#"
   xmlns:rdf="http://www.w3.org/1999/02/22-rdf-syntax-ns#"
   xmlns:svg="http://www.w3.org/2000/svg"
   xmlns="http://www.w3.org/2000/svg"
   xmlns:sodipodi="http://sodipodi.sourceforge.net/DTD/sodipodi-0.dtd"
   xmlns:inkscape="http://www.inkscape.org/namespaces/inkscape"
   version="1.1"
   id="svg2"
   xml:space="preserve"
   width="793.70081"
   height="793.70081"
   viewBox="0 0 793.70081 793.70081"
   sodipodi:docname="EuroLinux-favicon.svg"
   inkscape:version="0.92.2 (5c3e80d, 2017-08-06)"><metadata
     id="metadata8"><rdf:RDF><cc:Work
         rdf:about=""><dc:format>image/svg+xml</dc:format><dc:type
           rdf:resource="http://purl.org/dc/dcmitype/StillImage" /><dc:title></dc:title></cc:Work></rdf:RDF></metadata><defs
     id="defs6" /><sodipodi:namedview
     pagecolor="#ffffff"
     bordercolor="#666666"
     borderopacity="1"
     objecttolerance="10"
     gridtolerance="10"
     guidetolerance="10"
     inkscape:pageopacity="0"
     inkscape:pageshadow="2"
     inkscape:window-width="1920"
     inkscape:window-height="977"
     id="namedview4"
     showgrid="false"
     inkscape:zoom="1.1893651"
     inkscape:cx="199.04499"
     inkscape:cy="504.36366"
     inkscape:window-x="0"
     inkscape:window-y="28"
     inkscape:window-maximized="1"
     inkscape:current-layer="g10" /><g
     id="g10"
     inkscape:groupmode="layer"
     inkscape:label="EuroLinux-favicon"
     transform="matrix(1.3333333,0,0,-1.3333333,0,793.7008)"><path
       d="m 530.0629,300.7276 c -0.3014,-12.9977 -5.0148,-24.0908 -14.1234,-33.1994 -4.5317,-4.5315 -9.5862,-8.0396 -15.0845,-10.5075 -5.5151,-2.4505 -11.5308,-3.8548 -18.0068,-4.1904 l -0.0627,-0.0227 -315.8739,-4.7135 c 0.7393,-1.8649 1.5636,-3.7924 2.4449,-5.7767 1.3249,-2.8885 2.8485,-5.879 4.5314,-8.8869 l 0.023,-0.057 c 0.8583,-1.6886 1.8249,-3.4511 2.8259,-5.3161 3.7128,-6.3623 7.8859,-12.395 12.5143,-18.0921 v 0 c 4.9182,-6.0383 10.3709,-11.7354 16.3296,-17.0688 5.9587,-5.3161 12.2757,-10.0695 18.9337,-14.186 6.6181,-4.1508 13.623,-7.6816 20.9634,-10.6268 7.7839,-3.1728 16.0282,-5.6404 24.6481,-7.3859 8.6252,-1.7626 17.6315,-2.8259 27.0187,-3.1669 l 2.8485,0.0397 c 6.482,0.1023 12.4804,-0.904 17.9558,-3.0305 5.4924,-2.081 10.4675,-5.3331 14.9196,-9.6429 v 0.017 c 4.4348,-4.3098 7.8066,-9.1882 10.0922,-14.641 2.2629,-5.4187 3.4911,-11.3714 3.5708,-17.8534 0.0796,-6.4364 -0.927,-12.4747 -3.0306,-18.0125 -2.1038,-5.555 -5.356,-10.6098 -9.6488,-15.2039 -4.3098,-4.5541 -9.1882,-7.9829 -14.6013,-10.3482 -5.4354,-2.3255 -11.3941,-3.5705 -17.8701,-3.6728 l -8.2446,-0.1196 c -1.3476,-0.0227 -2.7065,0.0399 -4.0538,0.1423 -1.2853,0.1193 -2.5645,0.2616 -3.7925,0.5003 -10.0638,0.58 -20.0367,1.8023 -29.9015,3.6901 -9.9105,1.9046 -19.7184,4.4748 -29.4469,7.7213 -9.6486,3.1896 -19.0361,6.9594 -28.082,11.2125 -9.0292,4.2927 -17.7511,9.0686 -26.1377,14.345 -16.7902,10.6098 -32.0338,23.2835 -45.7705,38.0267 -6.8629,7.363 -13.1966,15.1867 -18.9734,23.4083 -5.777,8.2275 -11.0534,16.8925 -15.7668,25.9954 l -0.0227,0.0229 c -9.1656,17.9328 -15.9259,36.4459 -20.2584,55.482 -3.4911,15.4426 -5.396,31.2888 -5.6973,47.4763 l -0.017,1.8819 c -0.0397,3.1102 -0.0227,6.2431 0.0796,9.4099 0.523,20.1391 3.5308,39.5561 8.9666,58.2908 5.4524,18.6721 13.3557,36.6846 23.7095,53.9354 l 0.0173,0.0797 2.9109,4.4518 3.0648,4.5941 0.0227,0.0173 c 1.0803,1.6089 2.1832,3.1895 3.2865,4.6964 1.0063,1.3417 2.0069,2.6496 3.0132,3.9118 l 2.1665,2.5243 1.5806,-1.8649 52.1102,-60.9574 c 1.2679,-1.5009 2.6325,-2.9052 4.0141,-4.1902 1.3816,-1.2622 2.8485,-2.4278 4.3328,-3.5081 l 1.5636,-1.0863 -0.9043,-1.6659 c -2.1436,-3.9288 -4.1108,-7.9429 -5.8564,-12.0141 -1.3416,-3.1498 -2.6039,-6.3793 -3.7468,-9.6485 l 263.4228,3.9118 c -0.9837,2.6096 -2.1266,5.3161 -3.3718,8.085 -1.683,3.7131 -3.6502,7.5849 -5.8564,11.6161 -4.5941,8.3809 -9.9672,16.1648 -16.1079,23.3061 -6.1747,7.1187 -13.134,13.6403 -20.861,19.5137 v 0 c -7.7386,5.9018 -15.9259,10.9338 -24.5058,15.107 -8.6083,4.1508 -17.6545,7.4826 -27.0814,9.9105 h -0.0229 c -9.2052,2.4619 -18.5128,3.8891 -27.917,4.2928 -9.4102,0.3809 -18.9338,-0.2843 -28.5429,-1.9503 -6.5214,-1.1202 -12.9181,-2.6838 -19.1951,-4.6737 -6.2204,-2.0016 -12.2587,-4.4122 -18.1321,-7.221 l -1.6886,-0.8187 -1.0233,1.5636 c -0.5006,0.8414 -1.1033,1.683 -1.7229,2.5073 -0.6426,0.8643 -1.302,1.6832 -1.9276,2.4052 h -0.017 l -54.2766,63.4875 -1.626,1.9219 2.1436,1.3076 c 12.338,7.3973 25.0971,13.6344 38.2141,18.7348 13.1171,5.0717 26.6947,9.0006 40.699,11.7694 l 0.0567,0.0227 c 18.5357,3.1502 36.9462,4.1735 55.283,3.0079 18.331,-1.1827 36.5652,-4.5542 54.737,-10.0469 18.1547,-5.5207 35.1042,-12.9807 50.8082,-22.4246 15.6872,-9.4102 30.1688,-20.7646 43.3655,-34.0636 v -0.017 c 10.7691,-10.6722 20.361,-22.0836 28.7816,-34.2627 8.4662,-12.1504 15.7269,-25.0685 21.8276,-38.7314 6.0953,-13.6177 10.7461,-27.6787 13.919,-42.1433 3.1668,-14.4419 4.8727,-29.2249 5.1114,-44.4059 l 0.04,-2.8714 z"
       style="fill:#0e5ea6;fill-opacity:1;fill-rule:evenodd;stroke:none"
       id="path12"
       inkscape:connector-curvature="0" /></g></svg>