<?xml version="1.0" encoding="UTF-8" standalone="no"?>
<svg
   version="1.1"
   viewBox="0 0 128 128"
   id="svg6"
   sodipodi:docname="fedora.svg"
   width="128"
   height="128"
   inkscape:version="1.1.1 (3bf5ae0d25, 2021-09-20)"
   xmlns:inkscape="http://www.inkscape.org/namespaces/inkscape"
   xmlns:sodipodi="http://sodipodi.sourceforge.net/DTD/sodipodi-0.dtd"
   xmlns="http://www.w3.org/2000/svg"
   xmlns:svg="http://www.w3.org/2000/svg"
   xmlns:rdf="http://www.w3.org/1999/02/22-rdf-syntax-ns#"
   xmlns:cc="http://creativecommons.org/ns#"
   xmlns:dc="http://purl.org/dc/elements/1.1/">
  <defs
     id="defs10" />
  <sodipodi:namedview
     id="namedview8"
     pagecolor="#ffffff"
     bordercolor="#666666"
     borderopacity="1.0"
     inkscape:pageshadow="2"
     inkscape:pageopacity="0.0"
     inkscape:pagecheckerboard="0"
     showgrid="false"
     width="128px"
     inkscape:zoom="1.536347"
     inkscape:cx="-96.332404"
     inkscape:cy="89.823458"
     inkscape:window-width="2560"
     inkscape:window-height="1401"
     inkscape:window-x="0"
     inkscape:window-y="0"
     inkscape:window-maximized="1"
     inkscape:current-layer="svg6" />
  <title
     id="title2">Fedora logo (2021)</title>
  <path
     d="m 64.033088,16.5 c -26.631337,0 -48.206516,21.248356 -48.254579,47.480775 h -0.0085 v 36.753265 h 0.0085 C 15.791289,106.68416 20.690479,111.5 26.736721,111.5 H 64.023476 C 90.659618,111.48323 112.22999,90.237226 112.22999,64.019225 112.23003,37.786806 90.6452,16.53845 63.975413,16.53845 Z m 9.799909,19.551756 c 8.098502,0 15.745219,6.103915 15.745219,14.529242 0,0.781013 0.0048,1.562987 -0.124962,2.448775 -0.224355,2.240666 -2.304108,3.850754 -4.568324,3.534985 -2.264217,-0.319567 -3.80125,-2.43676 -3.382147,-4.651953 0.0384,-0.252808 0.05205,-0.649803 0.05205,-1.332288 0,-4.776434 -3.968507,-6.618183 -7.71881,-6.618183 -3.751265,0 -7.13245,3.105788 -7.137256,6.618183 0.06484,4.06367 0,8.093696 0,12.154963 l 6.964231,-0.05128 c 5.43585,-0.110832 5.498331,7.949509 0.06272,7.911059 l -7.021906,0.05128 c -0.01702,3.268719 0.02557,2.677552 0.0086,4.323687 0,0 0.05888,3.997824 -0.06229,7.026712 -0.84061,8.901144 -8.53587,16.014368 -17.783062,16.014368 -9.804715,0 -17.879186,-7.887028 -17.879186,-17.561975 0.294333,-9.948902 8.353232,-17.778255 18.503996,-17.686937 l 5.661743,-0.04199 v 7.896641 l -5.661743,0.05123 H 49.462 c -5.57523,0.162547 -10.357432,3.893049 -10.448751,9.775878 0,5.35895 4.396742,9.650916 9.852778,9.650916 5.450268,0 9.814328,-3.904584 9.814328,-9.641304 l -0.0085,-29.909187 c 0.0028,-0.55512 0.02132,-0.996332 0.0832,-1.608646 0.919913,-7.315087 7.56501,-12.890317 15.086765,-12.890317 z"
     style="fill:#51a2da;stroke-width:0.471972"
     id="path4" />
  <metadata
     id="metadata12">
    <rdf:RDF>
      <cc:Work
         rdf:about="">
        <dc:title>Fedora logo (2021)</dc:title>
      </cc:Work>
    </rdf:RDF>
  </metadata>
</svg>
