<?xml version="1.0" encoding="UTF-8" standalone="no"?>
<svg
   xmlns:dc="http://purl.org/dc/elements/1.1/"
   xmlns:cc="http://creativecommons.org/ns#"
   xmlns:rdf="http://www.w3.org/1999/02/22-rdf-syntax-ns#"
   xmlns:svg="http://www.w3.org/2000/svg"
   xmlns="http://www.w3.org/2000/svg"
   xmlns:sodipodi="http://sodipodi.sourceforge.net/DTD/sodipodi-0.dtd"
   xmlns:inkscape="http://www.inkscape.org/namespaces/inkscape"
   inkscape:version="1.0 (4035a4f, 2020-05-01)"
   xml:space="preserve"
   style="enable-background:new 0 0 128 128;"
   viewBox="0 0 128 128"
   height="128px"
   width="128px"
   y="0px"
   x="0px"
   sodipodi:docname="KDE Neon 12px.svg"
   id="svg12241"
   version="1.1"><metadata
   id="metadata36"><rdf:RDF><cc:Work
       rdf:about=""><dc:format>image/svg+xml</dc:format><dc:type
         rdf:resource="http://purl.org/dc/dcmitype/StillImage" /><dc:title></dc:title></cc:Work></rdf:RDF></metadata><defs
   id="defs34" />
<style
   id="style2"
   type="text/css">
	.st0{fill-rule:evenodd;clip-rule:evenodd;fill:url(#path4136_1_);}
	.st1{opacity:0.2;fill-rule:evenodd;clip-rule:evenodd;fill:url(#rect4146_1_);enable-background:new    ;}
	.st2{opacity:0.2;fill-rule:evenodd;clip-rule:evenodd;fill:url(#rect4146-1_1_);enable-background:new    ;}
	.st3{opacity:0.2;fill-rule:evenodd;clip-rule:evenodd;fill:url(#rect4146-1-9_1_);enable-background:new    ;}
	.st4{fill-rule:evenodd;clip-rule:evenodd;fill:#FCFCFC;}
</style>
<sodipodi:namedview
   inkscape:document-rotation="0"
   units="px"
   showguides="false"
   showgrid="true"
   pagecolor="#ffffff"
   inkscape:zoom="1.31"
   inkscape:window-y="28"
   inkscape:window-x="0"
   inkscape:window-width="1366"
   inkscape:window-maximized="1"
   inkscape:window-height="716"
   inkscape:snap-global="true"
   inkscape:snap-center="true"
   inkscape:snap-bbox="true"
   inkscape:pageshadow="2"
   inkscape:pageopacity="0.0"
   inkscape:document-units="px"
   inkscape:cy="24.416965"
   inkscape:cx="12.99109"
   inkscape:current-layer="g4150"
   inkscape:bbox-nodes="true"
   id="base"
   borderopacity="1.0"
   bordercolor="#666666">
	<inkscape:grid
   type="xygrid"
   id="grid4134" />
</sodipodi:namedview>
<g
   inkscape:label="Layer 1"
   inkscape:groupmode="layer"
   transform="translate(0,-1004.3622)"
   id="layer1">
	
		<linearGradient
   gradientTransform="matrix(0.74131469,0,0,-0.74131469,16.5515,1117.2531)"
   y2="2"
   x2="64"
   y1="130"
   x1="64"
   gradientUnits="userSpaceOnUse"
   id="path4136_1_">
		<stop
   id="stop6"
   style="stop-color:#1ABC9C"
   offset="0" />
		<stop
   id="stop8"
   style="stop-color:#2980B9"
   offset="1" />
	</linearGradient>
	<circle
   style="fill:url(#path4136_1_);stroke-width:0.741315"
   r="47.444141"
   cy="1068.3544"
   cx="63.99564"
   class="st0"
   id="path4136" />
	
		<g
   inkscape:transform-center-y="5.3320093"
   inkscape:transform-center-x="-5.3320308"
   transform="matrix(1.2352941,0,0,1.2352941,-5.6470588,-241.96758)"
   id="g4150">
		
			<linearGradient
   gradientTransform="matrix(0.64753838,0.64753838,0.64753838,-0.64753838,-357.37229,1304.7685)"
   y2="507.9356"
   x2="197.7"
   y1="507.9356"
   x1="131.0333"
   gradientUnits="userSpaceOnUse"
   id="rect4146_1_">
			<stop
   id="stop12"
   style="stop-color:#000000"
   offset="0" />
			<stop
   id="stop14"
   style="stop-color:#000000;stop-opacity:0"
   offset="1" />
		</linearGradient>
		<path
   style="fill:url(#rect4146_1_);stroke-width:0.741315"
   d="m 61.951404,1055.1223 -11.193852,11.1938 26.539066,26.5391 c 4.447888,-2.8911 8.228593,-6.746 11.193852,-11.1939 z"
   class="st1"
   id="rect4146" />
		
			<linearGradient
   gradientTransform="matrix(0.64753838,0.64753838,1.8211878,-1.8211878,-1002.4494,1949.8458)"
   y2="534.812"
   x2="197.6999"
   y1="534.812"
   x1="131.0332"
   gradientUnits="userSpaceOnUse"
   id="rect4146-1_1_">
			<stop
   id="stop18"
   style="stop-color:#000000"
   offset="0" />
			<stop
   id="stop20"
   style="stop-color:#000000;stop-opacity:0"
   offset="1" />
		</linearGradient>
		<path
   style="fill:url(#rect4146-1_1_);stroke-width:0.741315"
   d="m 72.107415,1044.9663 -0.741314,0.7413 c 4.003099,4.0031 6.227043,9.4147 6.227043,15.0487 0,11.7127 -9.488828,21.2757 -21.275732,21.2757 -5.633991,0 -11.045588,-2.224 -15.048688,-6.2271 l -0.741314,0.7414 22.165309,22.1653 c 16.086528,-2.7429 28.688878,-15.3452 31.431742,-31.5059 z"
   class="st2"
   id="rect4146-1" />
		
			<linearGradient
   gradientTransform="matrix(0.64753838,0.64753838,2.7519825,-2.7519825,-1514.0599,2461.4561)"
   y2="539.828"
   x2="197.6952"
   y1="539.828"
   x1="131.0285"
   gradientUnits="userSpaceOnUse"
   id="rect4146-1-9_1_">
			<stop
   id="stop24"
   style="stop-color:#000000"
   offset="0" />
			<stop
   id="stop26"
   style="stop-color:#000000;stop-opacity:0"
   offset="1" />
		</linearGradient>
		<path
   style="fill:url(#rect4146-1-9_1_);stroke-width:0.741315"
   d="m 80.113614,1036.9601 v 0 l -1.853287,1.8532 c 5.782255,5.7823 9.118171,13.7144 9.118171,21.943 0,17.1243 -13.862585,30.9869 -30.986954,30.9869 0,0 0,0 0,0 -8.228593,0 -16.086529,-3.2618 -21.942915,-9.1182 l -1.853287,1.8533 13.12127,13.1213 c 3.484179,1.0378 7.04249,1.5568 10.674932,1.5568 21.2016,0 38.400101,-17.1985 38.400101,-38.4001 0,-3.6325 -0.518921,-7.1908 -1.556761,-10.675 z"
   class="st3"
   id="rect4146-1-9" />
		<path
   style="stroke-width:0.741315"
   d="m 56.391544,1027.1006 c -1.260235,0 -2.446339,0.8895 -2.668733,2.1498 -6.523569,0.593 -12.676481,3.1135 -17.64329,7.339 -0.444788,-0.2224 -0.889577,-0.3707 -1.408498,-0.3707 -1.55676,0 -2.742864,1.2603 -2.742864,2.7429 v 0 c 0,0.5189 0.148263,0.9637 0.370657,1.4085 -4.225493,4.9668 -6.745963,11.1197 -7.339015,17.6433 -1.260235,0.2965 -2.149813,1.4085 -2.149813,2.6687 0,1.2603 0.889578,2.4464 2.149813,2.6688 0.593052,6.5235 3.113522,12.6764 7.339015,17.6432 -0.222394,0.4448 -0.370657,0.8896 -0.370657,1.4085 0,1.5568 1.260235,2.7429 2.742864,2.7429 0,0 0,0 0,0 0.518921,0 0.96371,-0.1483 1.408498,-0.3706 4.966809,4.2254 11.119721,6.7459 17.64329,7.339 0.296526,1.2602 1.408498,2.1498 2.668733,2.1498 1.260235,0 2.446338,-0.8896 2.668733,-2.1498 6.523569,-0.5931 12.676481,-3.1136 17.643289,-7.339 0.444789,0.2223 0.889578,0.3706 1.408498,0.3706 1.556761,0 2.742865,-1.2602 2.742865,-2.7429 v 0 c 0,-0.5189 -0.148263,-0.9637 -0.370658,-1.4085 4.225494,-4.9668 6.820095,-11.1197 7.339016,-17.6432 1.260235,-0.2966 2.149812,-1.4085 2.149812,-2.6688 0,-1.2602 -0.889577,-2.4463 -2.149812,-2.6687 -0.593052,-6.5236 -3.113522,-12.6765 -7.339016,-17.6433 0.222395,-0.4448 0.370658,-0.8896 0.370658,-1.4085 0,-1.5568 -1.260235,-2.7429 -2.742865,-2.7429 0,0 0,0 0,0 -0.51892,0 -0.963709,0.1483 -1.408498,0.3707 -4.966808,-4.2255 -11.11972,-6.8201 -17.643289,-7.339 -0.296526,-1.2603 -1.408498,-2.1498 -2.668733,-2.1498 z m 0,1.1861 c 0.889577,0 1.556761,0.7413 1.556761,1.5567 0,0.8896 -0.741315,1.5568 -1.556761,1.5568 -0.889578,0 -1.556761,-0.7413 -1.556761,-1.5568 -0.07413,-0.8154 0.667183,-1.5567 1.556761,-1.5567 z m -2.594602,2.5204 c 0.370658,1.112 1.408498,1.8533 2.594602,1.8533 1.186103,0 2.149812,-0.7413 2.594601,-1.7791 6.152912,0.5189 11.935167,2.9652 16.679581,6.8942 -0.222395,0.3707 -0.296526,0.8154 -0.296526,1.1861 0,1.5568 1.260235,2.7429 2.742864,2.7429 0,0 0,0 0,0 0.444789,0 0.815446,-0.074 1.186104,-0.2966 3.928968,4.7445 6.375306,10.5267 6.894226,16.6796 -1.111972,0.3707 -1.779155,1.4085 -1.779155,2.5946 0,1.1861 0.741315,2.1498 1.779155,2.5946 -0.51892,6.1529 -2.965258,11.9352 -6.894226,16.6796 -0.370658,-0.2224 -0.815446,-0.2965 -1.186104,-0.2965 -1.556761,0 -2.742864,1.2602 -2.742864,2.7428 v 0 c 0,0.4448 0.07413,0.8155 0.296526,1.1861 -4.744414,3.929 -10.526669,6.3754 -16.679581,6.8943 -0.370657,-1.112 -1.408498,-1.7792 -2.594601,-1.7792 -1.186104,0 -2.149813,0.7413 -2.594602,1.7792 -6.152911,-0.5189 -11.935166,-2.9653 -16.67958,-6.8943 0.222394,-0.3706 0.296526,-0.8154 0.296526,-1.2602 0,-1.5567 -1.260235,-2.7429 -2.742865,-2.7429 0,0 0,0 0,0 -0.444788,0 -0.815446,0.074 -1.186103,0.2966 -4.003099,-4.7444 -6.375306,-10.5267 -6.968358,-16.6796 1.111972,-0.3707 1.853287,-1.4085 1.853287,-2.5946 0,-1.1861 -0.741315,-2.1498 -1.779156,-2.5946 0.518921,-6.1529 2.965259,-11.9352 6.894227,-16.6796 0.370657,0.2224 0.815446,0.2965 1.260235,0.2965 1.556761,0 2.742864,-1.2602 2.742864,-2.7428 v 0 c 0,-0.4448 -0.07413,-0.8155 -0.296526,-1.1861 4.670283,-3.929 10.452538,-6.3753 16.605449,-6.8943 z m 2.594602,5.7823 c -1.334367,0 -2.446339,0.8896 -2.668733,2.1498 -11.11972,1.3344 -19.422445,10.7491 -19.422445,21.9429 0,11.1939 8.376856,20.6086 19.422445,21.9429 0.296526,1.2603 1.408498,2.1499 2.668733,2.1499 1.334366,0 2.446338,-0.8896 2.668733,-2.1499 11.11972,-1.3343 19.422445,-10.749 19.422445,-21.9429 0,-11.1938 -8.376856,-20.6085 -19.422445,-21.9429 -0.296526,-1.2602 -1.408498,-2.1498 -2.668733,-2.1498 z m -21.794652,0.8154 c 0.889578,0 1.556761,0.7414 1.556761,1.5568 0,0.8896 -0.741315,1.5568 -1.556761,1.5568 -0.889578,0 -1.556761,-0.7413 -1.556761,-1.5568 0,-0.8896 0.741315,-1.5568 1.556761,-1.5568 z m 43.515172,0 c 0.889578,0 1.556761,0.7414 1.556761,1.5568 0,0.8896 -0.741315,1.5568 -1.556761,1.5568 -0.815446,0 -1.556761,-0.7413 -1.556761,-1.5568 0,-0.8896 0.667184,-1.5568 1.556761,-1.5568 z m -21.72052,0.3707 c 0.889577,0 1.556761,0.7413 1.556761,1.5568 0,0.8895 -0.741315,1.5567 -1.556761,1.5567 0,0 0,0 0,0 -0.889578,0 -1.556761,-0.7413 -1.556761,-1.5567 0,0 0,0 0,0 -0.07413,-0.8155 0.667183,-1.5568 1.556761,-1.5568 z m -2.594602,2.5946 c 0.444789,1.0378 1.408498,1.7792 2.594602,1.7792 1.111972,0 2.149812,-0.7414 2.594601,-1.7792 10.230143,1.3344 17.939816,10.0078 18.013947,20.3862 0,10.3784 -7.709673,19.0517 -17.939815,20.3861 -0.444789,-1.0378 -1.408498,-1.7791 -2.594602,-1.7791 -1.111972,0 -2.149812,0.7413 -2.594601,1.7791 -10.230143,-1.3344 -17.939816,-10.0077 -18.013947,-20.3861 0,-10.3784 7.709673,-19.126 17.939815,-20.3862 z m 2.594602,12.4541 c -4.373757,0 -7.932067,3.5583 -7.932067,7.9321 0,4.3737 3.55831,7.932 7.932067,7.932 4.373756,0 7.932067,-3.5583 7.932067,-7.932 -0.07413,-4.3738 -3.558311,-7.9321 -7.932067,-7.9321 z m -30.838691,6.3012 c 0.889577,0 1.556761,0.7413 1.556761,1.5567 0,0.8896 -0.741315,1.5568 -1.556761,1.5568 -0.815446,0 -1.556761,-0.7413 -1.556761,-1.5568 -0.07413,-0.8154 0.667183,-1.5567 1.556761,-1.5567 z m 61.677382,0 c 0.889577,0 1.556761,0.7413 1.556761,1.5567 0,0.8896 -0.741315,1.5568 -1.556761,1.5568 -0.815446,0 -1.556761,-0.7413 -1.556761,-1.5568 -0.07413,-0.8154 0.667183,-1.5567 1.556761,-1.5567 z m -30.838691,21.3498 c 0.889577,0 1.556761,0.7413 1.556761,1.5568 v 0 c 0,0.8896 -0.741315,1.5567 -1.556761,1.5567 -0.815446,0 -1.556761,-0.7413 -1.556761,-1.5567 -0.07413,-0.8155 0.667183,-1.5568 1.556761,-1.5568 0,0 0,0 0,0 z m -21.794652,0.3707 c 0.889578,0 1.556761,0.7413 1.556761,1.5567 v 0 c 0,0.8896 -0.741315,1.5568 -1.556761,1.5568 0,0 0,0 0,0 -0.889578,0 -1.556761,-0.7413 -1.556761,-1.5568 v 0 c 0,-0.8154 0.741315,-1.5567 1.556761,-1.5567 0,0 0,0 0,0 z m 43.515172,0 c 0.889578,0 1.556761,0.7413 1.556761,1.5567 v 0 c 0,0.8896 -0.741315,1.5568 -1.556761,1.5568 0,0 0,0 0,0 -0.889577,0 -1.556761,-0.7413 -1.556761,-1.5568 v 0 c 0,-0.8154 0.667184,-1.5567 1.556761,-1.5567 0,0 0,0 0,0 z m -21.72052,9.1182 c 0.889577,0 1.556761,0.7413 1.556761,1.5567 v 0 c 0,0.8896 -0.741315,1.5568 -1.556761,1.5568 -0.815446,0 -1.556761,-0.7413 -1.556761,-1.5568 -0.07413,-0.8154 0.667183,-1.5567 1.556761,-1.5567 0,0 0,0 0,0 z"
   class="st4"
   inkscape:connector-curvature="0"
   id="path4146-1-4-0" />
	</g>
</g>
</svg>
