<?xml version="1.0" encoding="UTF-8" standalone="no"?>
<!-- Generator: Adobe Illustrator 21.0.0, SVG Export Plug-In . SVG Version: 6.00 Build 0)  -->

<svg
   version="1.1"
   id="katman_1"
   x="0px"
   y="0px"
   viewBox="0 0 128 128"
   xml:space="preserve"
   sodipodi:docname="pardus.svg"
   width="128"
   height="128"
   inkscape:version="1.1.1 (3bf5ae0d25, 2021-09-20)"
   xmlns:inkscape="http://www.inkscape.org/namespaces/inkscape"
   xmlns:sodipodi="http://sodipodi.sourceforge.net/DTD/sodipodi-0.dtd"
   xmlns="http://www.w3.org/2000/svg"
   xmlns:svg="http://www.w3.org/2000/svg"><defs
   id="defs89" /><sodipodi:namedview
   id="namedview87"
   pagecolor="#ffffff"
   bordercolor="#666666"
   borderopacity="1.0"
   inkscape:pageshadow="2"
   inkscape:pageopacity="0.0"
   inkscape:pagecheckerboard="0"
   showgrid="false"
   inkscape:zoom="6.78125"
   inkscape:cx="44.829493"
   inkscape:cy="61.640553"
   inkscape:window-width="2560"
   inkscape:window-height="1401"
   inkscape:window-x="0"
   inkscape:window-y="0"
   inkscape:window-maximized="1"
   inkscape:current-layer="katman_1" />
<style
   type="text/css"
   id="style2">
	.st0{fill:#FFD544;}
	.st1{fill:#FFCC00;}
</style>
<g
   id="g84"
   transform="matrix(0.12127291,0,0,0.12127291,11.852652,14.332336)">
	<g
   id="g82">
		<g
   id="g80">
			<g
   id="g8">
				<polygon
   class="st0"
   points="86.7,34.9 19.8,122.2 118.7,276.3 217.6,87.2 "
   id="polygon4" />
				<polygon
   class="st0"
   points="773.3,34.9 840.2,122.2 741.3,276.3 642.4,87.2 "
   id="polygon6" />
			</g>
			<path
   class="st1"
   d="M 732.1,322.1 630.3,128.4 C 626.5,121.2 614.8,112.1 607,110.2 L 605.1,109.7 452,73.3 c -10.6,-2.5 -29.8,-2.6 -40.4,-0.1 l -156.7,36.6 -2,0.5 c -7.8,1.8 -19.5,10.9 -23.2,18.1 L 128,322.1 113.9,348.9 c -4.5,8.5 -7.2,25.5 -5.6,35 l 28.3,169.9 c 1,5.8 7.9,13.4 13.4,14.8 l 77,19.4 c -1.9,-7.6 15.6,-15.4 15.5,-22.9 l 39.2,-85.5 c 0,1.5 -0.1,3 -0.4,4.5 l -14.7,76.1 c -1.6,8.3 1.6,23.2 6.5,30.1 l 8.1,11.5 38.3,54 56.2,79.3 c 4.3,6.1 16.2,12.3 23.6,12.3 h 61.6 c 7.4,0 19.2,-6.2 23.5,-12.3 l 55.6,-78.5 38.4,-54.2 8.5,-12 c 4.9,-6.9 8.1,-21.8 6.5,-30.1 l -14.7,-76.1 c -0.3,-1.5 -0.4,-3 -0.4,-4.5 l 39.2,85.4 c 0,7.6 17.4,15.6 15.5,23.3 l 77,-19.7 c 5.6,-1.4 12.5,-9.1 13.5,-14.9 l 28.3,-169.9 c 1.6,-9.5 -1.1,-26.6 -5.6,-35 z"
   id="path10" />
			<path
   d="M 854.3,107.8 C 850.3,95.7 837.5,74.1 826.1,59.7 814.6,45.3 796,28.2 784.7,21.7 773.4,15.2 721.6,29.4 695.4,41.4 l -19.1,8.7 c -26.2,12 -48,22 -48.4,22.2 -0.4,0.2 -3.5,0 -5.9,-1 -2.4,-1 -31.5,-8.2 -59.6,-14.8 L 512.2,44.8 C 484,38.2 451.7,32 440.2,30.9 428.7,29.8 379.7,38 351.6,44.5 l -53.8,12.4 c -28.1,6.4 -53,12.3 -55.4,13 -2.4,0.7 -9,3.1 -9.5,2.9 -0.4,-0.3 -23.1,-10.6 -49.3,-22.6 L 164.5,41.5 C 138.3,29.5 106,18.9 92.6,17.9 79.3,16.9 45.2,45.3 33.7,59.7 c -11.3,14.4 -24,36 -28,48.1 -4.1,12.1 18,59.6 34.1,83.5 l 33,48.9 c 16.1,23.9 25,51.5 19.7,61.3 -5.3,9.9 -12.5,27.4 -16,39 -3.6,11.6 0.5,62.5 5.4,90.9 L 92,492 c 4.8,28.4 13.8,61.2 20.1,72.8 6.2,11.6 55.7,32.2 83.6,39.1 l 12.5,3.1 c 28,6.9 64.6,31.7 81.5,55.1 l 22.6,31.3 c 16.8,23.4 38.8,49 48.8,57 10,8 52.2,14.5 68.8,14.5 16.7,0 40.4,-2.8 52.7,-6.3 12.3,-3.4 48.1,-41.9 65,-65.3 l 22.2,-30.8 c 16.9,-23.3 53.5,-48.2 81.4,-55.2 l 13,-3.3 c 27.9,-7 59.9,-18.6 71,-25.7 11.1,-7.1 27.8,-57.9 32.6,-86.4 l 10.3,-60.6 c 4.8,-28.4 8.5,-61.6 8.2,-73.7 -0.3,-12.1 -13.6,-46.3 -18.9,-56.2 -5.3,-9.8 3.6,-37.4 19.7,-61.3 l 33,-48.9 c 16.2,-23.8 38.3,-71.3 34.2,-83.4 z M 70.9,163.3 C 56.6,142.1 44.2,123.1 43.5,121.2 c 0,0 0,0 0,-2.2 0,-2.8 0,-2.8 0,-2.8 1.1,-2.5 11.4,-16.4 22.8,-30.8 11.5,-14.4 22.7,-27 25,-28.1 2.2,-1.1 29.9,9.9 56.1,21.8 l 4.1,1.9 c 26.2,12 47.3,22.4 46.8,23.1 -0.5,0.7 -12.7,23.5 -26.3,48.9 l -23,43.1 C 135.3,221.4 85.3,184.5 70.9,163.3 Z M 745.5,360 c 0.3,7 -3.4,36 -8.2,64.4 L 727,485 c -4.8,28.4 -10.5,54.6 -12.6,58.1 -2.1,3.6 -26.4,12.1 -47.2,17.4 -20.8,5.2 -37.2,6.1 -36.4,1.9 0.8,-4.2 -11.3,-33.4 -26.8,-56.1 -15.6,-22.7 -28.3,-40.6 -28.3,-39.8 0,0.8 3.6,19.4 7.6,39.6 4,20.2 6.9,41.7 6.4,47.9 -0.4,6.2 -7.5,20.4 -9.8,23.6 -2.3,3.2 -12.7,17.6 -23.1,31.9 -10.4,14.4 -31.1,43.2 -46.2,64 -15,20.8 -30.9,40.6 -35.3,43.8 -4.4,3.2 -28.8,5.9 -45.4,5.9 -16.6,0 -34.5,-1.4 -39.7,-3 -5.2,-1.6 -26.1,-26 -41.3,-47.1 -15.2,-21 -36.1,-50 -46.4,-64.3 -10.3,-14.3 -20.6,-28.5 -22.8,-31.6 -2.2,-3 -5.8,-10.3 -7.9,-16 -2.2,-5.8 0.9,-35 4.8,-55.2 4,-20.2 7.3,-37.3 7.4,-38.1 0.1,-0.8 -12.6,15.7 -28.1,38.3 -15.6,22.7 -28.1,44.5 -27.8,48.6 0.3,4.1 -14.7,10.5 -35.5,5.3 -20.8,-5.2 -40.6,-11.3 -43.9,-13.7 -3.4,-2.4 -11,-33.1 -15.8,-61.5 l -10.3,-60.6 c -4.8,-28.4 -8.5,-57.4 -8.2,-64.4 0.3,-7.1 8.1,-26.8 11.9,-33.9 3.8,-7.1 18,-33.7 31.6,-59.1 l 50.5,-94.4 c 13.6,-25.4 28.1,-49.7 32.3,-54 4.2,-4.3 15.7,-9.7 16.2,-9.8 0.5,-0.1 23.9,-5.5 52,-11.9 l 51.9,-11.9 c 28.1,-6.5 57.6,-12.3 65.7,-12.9 8.1,-0.6 48,6.6 76.1,13.2 L 551,96.5 c 28.1,6.6 51.4,12 51.9,12.2 0.5,0.1 5.2,2.6 10.5,5.5 5.3,2.9 24.4,33 38,58.4 L 702,267 c 13.6,25.4 27.8,52 31.6,59.1 3.9,7.1 11.6,26.9 11.9,33.9 z m 71,-238.8 c -0.7,1.9 -13.1,20.9 -27.4,42.1 -14.3,21.3 -64.4,58.2 -77.9,32.8 L 688.1,153 c -13.6,-25.4 -25.1,-46.8 -25.5,-47.6 -0.4,-0.7 19.8,-12.5 46,-24.5 l 4.1,-1.9 c 26.2,-12 50.1,-21.8 53,-21.9 3,-0.1 16.5,13.9 28,28.3 11.4,14.4 21.7,28.3 22.8,30.8 0,0 0,0 0,2.8 0,2.2 0,2.2 0,2.2 z"
   id="path12" />
			<path
   d="m 356.8,507.8 c -6.2,-12.4 0.1,-22.5 13.9,-22.5 h 118.5 c 13.8,0 20.1,10.2 13.9,22.5 l -62,70.4 c -6.2,12.4 -16.3,12.4 -22.5,0 z"
   id="path14" />
			<path
   d="m 430,658.8 c 0,0 8.4,7.7 18.6,17 l 40.2,36.8 c 10.3,9.3 21.4,10.3 24.9,2 3.4,-8.2 -3.1,-21.3 -14.6,-29.1 l -38.1,-26 c -11.5,-7.8 -20.8,-14.5 -20.8,-14.8 0,-0.3 0.1,-12.5 0.1,-26.4 v -71 c 0,-13.9 -2.1,-29.9 -4.6,-35.6 0,0 0,0 -5.7,0 -5.7,0 -5.7,0 -5.7,0 -2.6,5.7 -4.6,21.7 -4.6,35.6 v 71 c 0,13.9 0,25.5 0,25.8 0,0.3 -9.2,7.5 -20.7,15.3 l -38.1,26 c -11.4,7.8 -18,20.9 -14.6,29.1 3.5,8.2 14.6,7.3 24.9,-2 l 40.3,-36.8 c 10.1,-9.2 18.5,-16.9 18.5,-16.9 z"
   id="path16" />
			<g
   id="g22">
				<path
   d="m 209.5,321.5 c -14.9,0.4 -15,2.5 -0.3,4.6 l 123.6,17.7 c 14.7,2.1 25.7,15.9 24.3,30.7 l -15.8,55.2 c -1.3,14.8 3.3,27.3 10.3,27.9 7,0.5 12.9,0.4 12.9,-0.1 0,-0.6 0.6,-13.2 1.2,-28.1 l 12.9,-51.8 c 0.7,-14.9 1.5,-34.6 1.9,-43.9 0.4,-9.3 -3.5,-16.8 -8.7,-16.6 -5.2,0.2 -21.6,0.6 -36.5,1 z"
   id="path18" />
				<path
   d="m 524.6,318 c -14.9,-0.4 -31.3,-0.9 -36.5,-1 -5.2,-0.2 -9.2,7.3 -8.8,16.6 0.4,9.3 1.3,29.1 1.9,43.9 l 12.9,51.8 c 0.6,14.9 1.2,27.5 1.3,28.1 0,0.6 5.8,0.7 12.9,0.1 7.1,-0.5 11.7,-13.1 10.3,-27.9 l -15.8,-55.2 c -1.4,-14.8 9.6,-28.6 24.3,-30.7 L 650.7,326 c 14.7,-2.1 14.6,-4.2 -0.3,-4.6 z"
   id="path20" />
			</g>
			<g
   id="g28">
				<path
   d="m 320.6,340.2 c 0,9.5 -7.7,17.2 -17.2,17.2 -9.5,0 -17.1,-7.7 -17.1,-17.2 0,-9.5 7.7,-17.1 17.1,-17.1 9.5,-0.1 17.2,7.6 17.2,17.1 z"
   id="path24" />
				<path
   d="m 573.7,340.2 c 0,9.5 -7.7,17.2 -17.2,17.2 -9.5,0 -17.2,-7.7 -17.2,-17.2 0,-9.5 7.7,-17.1 17.2,-17.1 9.5,-0.1 17.2,7.6 17.2,17.1 z"
   id="path26" />
			</g>
			<g
   id="g58">
				<g
   id="g42">
					<g
   id="g32">
						<path
   d="m 361.8,551.5 c -94.7,23.6 -188.5,72.1 -261.6,137.1 -5,4.5 1.3,11.4 6.6,7.8 83.2,-55.5 160.5,-103.8 257.1,-133 7.2,-2.3 5.6,-13.8 -2.1,-11.9 z"
   id="path30" />
					</g>
					<g
   id="g36">
						<path
   d="m 364.3,585.1 c -78,7.3 -151.7,83.3 -192.2,145.8 -2.6,4 2.7,9.4 6.4,5.9 57.5,-54.5 104.2,-125.6 187.5,-142 6.3,-1.2 4.5,-10.2 -1.7,-9.7 z"
   id="path34" />
					</g>
					<g
   id="g40">
						<path
   d="M 371.2,617.9 C 295.6,638.1 234.6,726.7 206,795.2 c -2,4.7 4.8,7.9 7.7,4 47.6,-63.2 80.8,-142.2 160.4,-172.1 5.2,-1.8 2.4,-10.6 -2.9,-9.2 z"
   id="path38" />
					</g>
				</g>
				<g
   id="g56">
					<g
   id="g46">
						<path
   d="m 495,563 c 96.8,29.3 175.1,78.1 258.5,133.6 5.6,3.7 10.7,-4.1 5.9,-8.4 -72.5,-64.5 -166.1,-113.1 -260.1,-136.5 -7.4,-1.8 -11.8,9 -4.3,11.3 z"
   id="path44" />
					</g>
					<g
   id="g50">
						<path
   d="m 494.4,594.9 c 82.7,16.2 129.5,87.3 186.6,141.4 4.1,3.9 9.8,-0.9 6.7,-5.7 -40.4,-62.2 -114.5,-138.3 -192.3,-145.5 -6.5,-0.6 -7.1,8.6 -1,9.8 z"
   id="path48" />
					</g>
					<g
   id="g54">
						<path
   d="m 486.3,627.4 c 79.4,29.8 112.7,109.1 160.2,172.2 3.1,4.1 9.2,-0.3 7.3,-4.7 -28.4,-68.1 -89.2,-156.7 -164.1,-176.7 -6,-1.6 -9.5,6.9 -3.4,9.2 z"
   id="path52" />
					</g>
				</g>
			</g>
			<g
   id="g78">
				<g
   id="g68">
					<path
   d="m 295.4,154.1 c 0,19.1 -12.4,34.6 -27.7,34.6 -15.3,0 -27.7,-15.5 -27.7,-34.6 0,-19.1 12.4,-34.7 27.7,-34.7 15.3,0.1 27.7,15.6 27.7,34.7 z"
   id="path60" />
					<path
   d="m 258,220.7 c 0,12.8 -10.3,23.1 -23.1,23.1 -12.8,0 -23.1,-10.3 -23.1,-23.1 0,-12.8 10.3,-23.1 23.1,-23.1 12.8,0 23.1,10.3 23.1,23.1 z"
   id="path62" />
					<path
   d="m 363.2,145.4 c -4.6,14.6 -14.3,24.5 -21.6,22.2 -7.3,-2.3 -9.4,-16 -4.8,-30.6 4.6,-14.6 14.3,-24.5 21.6,-22.2 7.3,2.3 9.4,16.1 4.8,30.6 z"
   id="path64" />
					<path
   d="m 328.3,227.8 c 0,7.7 -7.2,13.9 -16.2,13.9 -8.9,0 -16.2,-6.2 -16.2,-13.9 0,-7.7 7.2,-13.8 16.2,-13.8 9,0 16.2,6.2 16.2,13.8 z"
   id="path66" />
				</g>
				<g
   id="g76">
					<path
   d="m 669.1,492.3 c -5.7,11.4 -1.1,25.3 10.4,31 11.4,5.7 25.3,1.1 31,-10.3 5.7,-11.4 1,-25.3 -10.4,-31 -11.4,-5.8 -25.3,-1.1 -31,10.3 z"
   id="path70" />
					<path
   d="m 674.5,433.3 c -2.4,15.1 1.9,28.4 9.4,29.5 7.6,1.2 15.6,-10.1 18,-25.2 2.4,-15.1 -1.8,-28.3 -9.4,-29.5 -7.6,-1.2 -15.6,10.1 -18,25.2 z"
   id="path72" />
					<path
   d="m 632,468.4 c -3.4,6.8 0.3,15.6 8.3,19.6 8,4 17.3,1.7 20.7,-5.2 3.4,-6.8 -0.3,-15.6 -8.3,-19.6 -8,-4 -17.3,-1.6 -20.7,5.2 z"
   id="path74" />
				</g>
			</g>
		</g>
	</g>
</g>
</svg>
