<?xml version="1.0" encoding="UTF-8" standalone="no"?>
<svg
   viewBox="0 0 512.00002 512.00002"
   version="1.1"
   id="svg25"
   sodipodi:docname="turkman.svg"
   xml:space="preserve"
   inkscape:version="1.2.1 (9c6d41e410, 2022-07-14)"
   width="512"
   height="512"
   xmlns:inkscape="http://www.inkscape.org/namespaces/inkscape"
   xmlns:sodipodi="http://sodipodi.sourceforge.net/DTD/sodipodi-0.dtd"
   xmlns="http://www.w3.org/2000/svg"
   xmlns:svg="http://www.w3.org/2000/svg"><sodipodi:namedview
     id="namedview27"
     pagecolor="#ffffff"
     bordercolor="#000000"
     borderopacity="0.25"
     inkscape:showpageshadow="2"
     inkscape:pageopacity="0.0"
     inkscape:pagecheckerboard="0"
     inkscape:deskcolor="#d1d1d1"
     showgrid="false"
     inkscape:zoom="1.0200526"
     inkscape:cx="81.858524"
     inkscape:cy="192.14695"
     inkscape:window-width="2560"
     inkscape:window-height="1368"
     inkscape:window-x="0"
     inkscape:window-y="35"
     inkscape:window-maximized="1"
     inkscape:current-layer="svg25" /><defs
     id="defs11"><style
       id="style9">.cls-1{fill:#ed1c24;}.cls-2{fill:#fff;}</style></defs><rect
     style="fill:#1aa3ff;fill-opacity:1;stroke:none;stroke-width:7.35012;stroke-opacity:1"
     id="rect297"
     width="512"
     height="512"
     x="0"
     y="0"
     ry="88.527229" /><g
     id="g872"
     transform="matrix(6.9913211,0,0,6.9913211,1.8654778,1.8654736)"><path
       class="cls-2"
       d="M 41.36,36.32 A 12,12 0 0 1 63.5,30 9.52,9.52 0 1 0 62.71,43.44 9.81,9.81 0 0 0 63.5,42.65 12,12 0 0 1 41.36,36.32"
       id="path10"
       style="fill:#ffffff" /><path
       class="cls-2"
       d="M 16.63,50.68 A 12,12 0 0 1 38.77,44.35 9.52,9.52 0 1 0 38,57.79 8.2,8.2 0 0 0 38.78,57.01 12,12 0 0 1 16.64,50.68"
       id="path12"
       style="fill:#ffffff" /><path
       class="cls-2"
       d="M 16.63,22 A 12,12 0 0 1 38.77,15.67 9.52,9.52 0 1 0 38,29.12 9.81,9.81 0 0 0 38.79,28.33 12,12 0 0 1 16.63,22"
       id="path14"
       style="fill:#ffffff" /></g></svg>
