<svg width="128" height="128" viewBox="0 0 128 128" fill="none" xmlns="http://www.w3.org/2000/svg">
<path d="M94.685 17H33V112H94.685V17Z" fill="#E9500E"/>
<path d="M46.4537 86.1779C50.0289 86.1779 52.9272 83.2796 52.9272 79.7044C52.9272 76.1292 50.0289 73.2309 46.4537 73.2309C42.8785 73.2309 39.9802 76.1292 39.9802 79.7044C39.9802 83.2796 42.8785 86.1779 46.4537 86.1779Z" fill="white"/>
<path d="M73.4133 71.9833C76.9885 71.9833 79.8868 69.085 79.8868 65.5098C79.8868 61.9346 76.9885 59.0363 73.4133 59.0363C69.8381 59.0363 66.9398 61.9346 66.9398 65.5098C66.9398 69.085 69.8381 71.9833 73.4133 71.9833Z" fill="white"/>
<path d="M61.0536 96.3645C58.7656 95.8807 56.6139 94.894 54.7544 93.4758C52.8949 92.0576 51.3742 90.2435 50.3025 88.165C48.5702 88.9514 46.6388 89.1888 44.7676 88.8453C46.0618 92.0453 48.1222 94.8785 50.7678 97.0957C53.4134 99.313 56.5631 100.846 59.9401 101.561C61.4507 101.885 62.992 102.044 64.5369 102.034C63.3485 100.476 62.6849 98.5812 62.6415 96.622C62.1084 96.5628 61.5758 96.4763 61.0536 96.3645Z" fill="white"/>
<path d="M71.9549 102.874C75.5301 102.874 78.4283 99.9754 78.4283 96.4002C78.4283 92.825 75.5301 89.9268 71.9549 89.9268C68.3797 89.9268 65.4814 92.825 65.4814 96.4002C65.4814 99.9754 68.3797 102.874 71.9549 102.874Z" fill="white"/>
<path d="M80.963 94.0225C83.738 90.5217 85.335 86.2331 85.5256 81.7699C85.7163 77.3067 84.4907 72.8976 82.0243 69.1729C81.2766 70.9336 80.0058 72.4219 78.384 73.4363C79.679 75.881 80.3124 78.6219 80.2214 81.3869C80.1304 84.152 79.3182 86.8453 77.8653 89.1996C79.3808 90.4402 80.465 92.1284 80.963 94.0225Z" fill="white"/>
<path d="M45.9542 70.4208C46.1185 70.4118 46.2829 70.4074 46.4473 70.4074C48.1818 70.4087 49.8817 70.8928 51.3566 71.8054C52.7836 69.7443 54.6809 68.0525 56.8916 66.8702C59.1023 65.6879 61.5627 65.049 64.0693 65.0064C64.1739 63.0973 64.8591 61.2656 66.0332 59.7565C62.0204 59.4535 58.004 60.2946 54.45 62.1822C50.896 64.0698 47.9501 66.9265 45.9542 70.4208Z" fill="white"/>
</svg>
