<?xml version="1.0" encoding="UTF-8" standalone="no"?>
<svg
   width="988"
   height="945"
   viewBox="0 0 988 945"
   version="1.1"
   xml:space="preserve"
   style="clip-rule:evenodd;fill-rule:evenodd;stroke-linejoin:round;stroke-miterlimit:2"
   id="svg39"
   sodipodi:docname="vanillaos-logo-icon.svg"
   inkscape:export-filename="vanillaos-logo-icon.svg"
   inkscape:export-xdpi="96"
   inkscape:export-ydpi="96"
   inkscape:version="1.3.2 (091e20e, 2023-11-25)"
   xmlns:inkscape="http://www.inkscape.org/namespaces/inkscape"
   xmlns:sodipodi="http://sodipodi.sourceforge.net/DTD/sodipodi-0.dtd"
   xmlns="http://www.w3.org/2000/svg"
   xmlns:svg="http://www.w3.org/2000/svg"><sodipodi:namedview
   id="namedview39"
   pagecolor="#ffffff"
   bordercolor="#000000"
   borderopacity="0.25"
   inkscape:showpageshadow="2"
   inkscape:pageopacity="0.0"
   inkscape:pagecheckerboard="0"
   inkscape:deskcolor="#d1d1d1"
   inkscape:zoom="0.20376779"
   inkscape:cx="-338.62074"
   inkscape:cy="1069.8452"
   inkscape:window-width="1312"
   inkscape:window-height="449"
   inkscape:window-x="0"
   inkscape:window-y="25"
   inkscape:window-maximized="0"
   inkscape:current-layer="svg39" />
    
    
    
    
    <g
   id="g39"
   transform="matrix(1.5328824,0,0,1.5328824,-290.32567,-250.21782)"><g
     transform="rotate(1.6999972,271.31637,330.62646)"
     id="g4">
        <g
   transform="matrix(0.396525,0.920722,-0.920722,0.396525,784.294,-167.51)"
   id="g1">
            <path
   d="m 187.485,380.873 c 7.066,86.621 81.86,234.113 324.514,131.113 -28.31,-16.239 -60.533,-36.941 -92.19,-58.228 -79.41,-53.396 -155.252,-110.468 -156.797,-109.987 -23.556,7.325 -48.729,19.375 -75.527,37.102 z"
   style="fill:url(#_Linear1);fill-rule:nonzero"
   id="path1" />
        </g>
        <g
   transform="matrix(0.396525,0.920722,-0.920722,0.396525,784.294,-167.51)"
   id="g2">
            <path
   d="m 263.012,343.771 c 1.199,-0.373 3.584,-1.082 3.584,-1.082 0,0 195.088,123.75 245.403,169.297 -9.23,2.911 -22.141,7.498 -41.514,9.378 -27.238,2.643 -96.089,-0.789 -151.051,-47.107 C 267.037,430.1 258.793,381.508 263.012,343.771 Z"
   style="fill:#fffb64"
   id="path2" />
        </g>
        <g
   transform="matrix(0.396525,0.920722,-0.920722,0.396525,784.294,-167.51)"
   id="g3">
            <path
   d="m 266.596,342.689 c 136.661,-40 218.092,79.649 245.403,169.297 -43.348,17.035 -124.936,14.936 -190.073,-40.491 -52.193,-44.413 -58.633,-91.071 -55.33,-128.806 z"
   style="fill:url(#_Linear2)"
   id="path3" />
        </g>
    </g><g
     transform="rotate(68.399966,507.96697,506.57725)"
     id="g8">
        <g
   transform="matrix(0.396525,0.920722,-0.920722,0.396525,784.294,-167.51)"
   id="g5">
            <path
   d="m 187.485,380.873 c 7.066,86.621 81.86,234.113 324.514,131.113 -28.31,-16.239 -60.533,-36.941 -92.19,-58.228 -79.41,-53.396 -155.252,-110.468 -156.797,-109.987 -23.556,7.325 -48.729,19.375 -75.527,37.102 z"
   style="fill:url(#_Linear3);fill-rule:nonzero"
   id="path4" />
        </g>
        <g
   transform="matrix(0.396525,0.920722,-0.920722,0.396525,784.294,-167.51)"
   id="g6">
            <path
   d="m 263.012,343.771 c 1.199,-0.373 3.584,-1.082 3.584,-1.082 0,0 195.088,123.75 245.403,169.297 -9.23,2.911 -22.141,7.498 -41.514,9.378 -27.238,2.643 -96.089,-0.789 -151.051,-47.107 C 267.037,430.1 258.793,381.508 263.012,343.771 Z"
   style="fill:#fffb64"
   id="path5" />
        </g>
        <g
   transform="matrix(0.396525,0.920722,-0.920722,0.396525,784.294,-167.51)"
   id="g7">
            <path
   d="m 266.596,342.689 c 136.661,-40 218.092,79.649 245.403,169.297 -43.348,17.035 -124.936,14.936 -190.073,-40.491 -52.193,-44.413 -58.633,-91.071 -55.33,-128.806 z"
   style="fill:url(#_Linear4)"
   id="path6" />
        </g>
    </g><g
     transform="rotate(-136.00002,514.69833,511.58042)"
     id="g12">
        <g
   transform="matrix(0.396525,0.920722,-0.920722,0.396525,784.294,-167.51)"
   id="g9">
            <path
   d="m 187.485,380.873 c 7.066,86.621 81.86,234.113 324.514,131.113 -28.31,-16.239 -60.533,-36.941 -92.19,-58.228 -79.41,-53.396 -155.252,-110.468 -156.797,-109.987 -23.556,7.325 -48.729,19.375 -75.527,37.102 z"
   style="fill:url(#_Linear5);fill-rule:nonzero"
   id="path8" />
        </g>
        <g
   transform="matrix(0.396525,0.920722,-0.920722,0.396525,784.294,-167.51)"
   id="g10">
            <path
   d="m 263.012,343.771 c 1.199,-0.373 3.584,-1.082 3.584,-1.082 0,0 195.088,123.75 245.403,169.297 -9.23,2.911 -22.141,7.498 -41.514,9.378 -27.238,2.643 -96.089,-0.789 -151.051,-47.107 C 267.037,430.1 258.793,381.508 263.012,343.771 Z"
   style="fill:#fffb64"
   id="path9" />
        </g>
        <g
   transform="matrix(0.396525,0.920722,-0.920722,0.396525,784.294,-167.51)"
   id="g11">
            <path
   d="m 266.596,342.689 c 136.661,-40 218.092,79.649 245.403,169.297 -43.348,17.035 -124.936,14.936 -190.073,-40.491 -52.193,-44.413 -58.633,-91.071 -55.33,-128.806 z"
   style="fill:url(#_Linear6)"
   id="path10" />
        </g>
    </g><g
     transform="rotate(139.89997,511.9378,509.52956)"
     id="g16">
        <g
   transform="matrix(0.396525,0.920722,-0.920722,0.396525,784.294,-167.51)"
   id="g13">
            <path
   d="m 187.485,380.873 c 7.066,86.621 81.86,234.113 324.514,131.113 -28.31,-16.239 -60.533,-36.941 -92.19,-58.228 -79.41,-53.396 -155.252,-110.468 -156.797,-109.987 -23.556,7.325 -48.729,19.375 -75.527,37.102 z"
   style="fill:url(#_Linear7);fill-rule:nonzero"
   id="path12" />
        </g>
        <g
   transform="matrix(0.396525,0.920722,-0.920722,0.396525,784.294,-167.51)"
   id="g14">
            <path
   d="m 263.012,343.771 c 1.199,-0.373 3.584,-1.082 3.584,-1.082 0,0 195.088,123.75 245.403,169.297 -9.23,2.911 -22.141,7.498 -41.514,9.378 -27.238,2.643 -96.089,-0.789 -151.051,-47.107 C 267.037,430.1 258.793,381.508 263.012,343.771 Z"
   style="fill:#fffb64"
   id="path13" />
        </g>
        <g
   transform="matrix(0.396525,0.920722,-0.920722,0.396525,784.294,-167.51)"
   id="g15">
            <path
   d="m 266.596,342.689 c 136.661,-40 218.092,79.649 245.403,169.297 -43.348,17.035 -124.936,14.936 -190.073,-40.491 -52.193,-44.413 -58.633,-91.071 -55.33,-128.806 z"
   style="fill:url(#_Linear8)"
   id="path14" />
        </g>
    </g><g
     transform="matrix(0.42318,-0.906045,0.906045,0.42318,-167.034,767.022)"
     id="g20">
        <g
   transform="matrix(0.396525,0.920722,-0.920722,0.396525,784.294,-167.51)"
   id="g17">
            <path
   d="m 187.485,380.873 c 7.066,86.621 81.86,234.113 324.514,131.113 -28.31,-16.239 -60.533,-36.941 -92.19,-58.228 -79.41,-53.396 -155.252,-110.468 -156.797,-109.987 -23.556,7.325 -48.729,19.375 -75.527,37.102 z"
   style="fill:url(#_Linear9);fill-rule:nonzero"
   id="path16" />
        </g>
        <g
   transform="matrix(0.396525,0.920722,-0.920722,0.396525,784.294,-167.51)"
   id="g18">
            <path
   d="m 263.012,343.771 c 1.199,-0.373 3.584,-1.082 3.584,-1.082 0,0 195.088,123.75 245.403,169.297 -9.23,2.911 -22.141,7.498 -41.514,9.378 -27.238,2.643 -96.089,-0.789 -151.051,-47.107 C 267.037,430.1 258.793,381.508 263.012,343.771 Z"
   style="fill:#fffb64"
   id="path17" />
        </g>
        <g
   transform="matrix(0.396525,0.920722,-0.920722,0.396525,784.294,-167.51)"
   id="g19">
            <path
   d="m 266.596,342.689 c 136.661,-40 218.092,79.649 245.403,169.297 -43.348,17.035 -124.936,14.936 -190.073,-40.491 -52.193,-44.413 -58.633,-91.071 -55.33,-128.806 z"
   style="fill:url(#_Linear10)"
   id="path18" />
        </g>
    </g></g>
    <defs
   id="defs39">
        <linearGradient
   id="_Linear1"
   x1="0"
   y1="0"
   x2="1"
   y2="0"
   gradientUnits="userSpaceOnUse"
   gradientTransform="matrix(324.514,131.112,-131.112,324.514,187.641,380.487)"><stop
     offset="0"
     style="stop-color:rgb(255,251,100);stop-opacity:1"
     id="stop20" /><stop
     offset="1"
     style="stop-color:rgb(255,191,72);stop-opacity:1"
     id="stop21" /></linearGradient>
        <linearGradient
   id="_Linear2"
   x1="0"
   y1="0"
   x2="1"
   y2="0"
   gradientUnits="userSpaceOnUse"
   gradientTransform="matrix(324.514,131.112,-131.112,324.514,187.641,380.487)"><stop
     offset="0"
     style="stop-color:rgb(253,225,78);stop-opacity:1"
     id="stop22" /><stop
     offset="1"
     style="stop-color:rgb(249,167,49);stop-opacity:1"
     id="stop23" /></linearGradient>
        <linearGradient
   id="_Linear3"
   x1="0"
   y1="0"
   x2="1"
   y2="0"
   gradientUnits="userSpaceOnUse"
   gradientTransform="matrix(324.514,131.112,-131.112,324.514,187.641,380.487)"><stop
     offset="0"
     style="stop-color:rgb(255,251,100);stop-opacity:1"
     id="stop24" /><stop
     offset="1"
     style="stop-color:rgb(255,191,72);stop-opacity:1"
     id="stop25" /></linearGradient>
        <linearGradient
   id="_Linear4"
   x1="0"
   y1="0"
   x2="1"
   y2="0"
   gradientUnits="userSpaceOnUse"
   gradientTransform="matrix(324.514,131.112,-131.112,324.514,187.641,380.487)"><stop
     offset="0"
     style="stop-color:rgb(253,225,78);stop-opacity:1"
     id="stop26" /><stop
     offset="1"
     style="stop-color:rgb(249,167,49);stop-opacity:1"
     id="stop27" /></linearGradient>
        <linearGradient
   id="_Linear5"
   x1="0"
   y1="0"
   x2="1"
   y2="0"
   gradientUnits="userSpaceOnUse"
   gradientTransform="matrix(324.514,131.112,-131.112,324.514,187.641,380.487)"><stop
     offset="0"
     style="stop-color:rgb(255,251,100);stop-opacity:1"
     id="stop28" /><stop
     offset="1"
     style="stop-color:rgb(255,191,72);stop-opacity:1"
     id="stop29" /></linearGradient>
        <linearGradient
   id="_Linear6"
   x1="0"
   y1="0"
   x2="1"
   y2="0"
   gradientUnits="userSpaceOnUse"
   gradientTransform="matrix(324.514,131.112,-131.112,324.514,187.641,380.487)"><stop
     offset="0"
     style="stop-color:rgb(253,225,78);stop-opacity:1"
     id="stop30" /><stop
     offset="1"
     style="stop-color:rgb(249,167,49);stop-opacity:1"
     id="stop31" /></linearGradient>
        <linearGradient
   id="_Linear7"
   x1="0"
   y1="0"
   x2="1"
   y2="0"
   gradientUnits="userSpaceOnUse"
   gradientTransform="matrix(324.514,131.112,-131.112,324.514,187.641,380.487)"><stop
     offset="0"
     style="stop-color:rgb(255,251,100);stop-opacity:1"
     id="stop32" /><stop
     offset="1"
     style="stop-color:rgb(255,191,72);stop-opacity:1"
     id="stop33" /></linearGradient>
        <linearGradient
   id="_Linear8"
   x1="0"
   y1="0"
   x2="1"
   y2="0"
   gradientUnits="userSpaceOnUse"
   gradientTransform="matrix(324.514,131.112,-131.112,324.514,187.641,380.487)"><stop
     offset="0"
     style="stop-color:rgb(253,225,78);stop-opacity:1"
     id="stop34" /><stop
     offset="1"
     style="stop-color:rgb(249,167,49);stop-opacity:1"
     id="stop35" /></linearGradient>
        <linearGradient
   id="_Linear9"
   x1="0"
   y1="0"
   x2="1"
   y2="0"
   gradientUnits="userSpaceOnUse"
   gradientTransform="matrix(324.514,131.112,-131.112,324.514,187.641,380.487)"><stop
     offset="0"
     style="stop-color:rgb(255,251,100);stop-opacity:1"
     id="stop36" /><stop
     offset="1"
     style="stop-color:rgb(255,191,72);stop-opacity:1"
     id="stop37" /></linearGradient>
        <linearGradient
   id="_Linear10"
   x1="0"
   y1="0"
   x2="1"
   y2="0"
   gradientUnits="userSpaceOnUse"
   gradientTransform="matrix(324.514,131.112,-131.112,324.514,187.641,380.487)"><stop
     offset="0"
     style="stop-color:rgb(253,225,78);stop-opacity:1"
     id="stop38" /><stop
     offset="1"
     style="stop-color:rgb(249,167,49);stop-opacity:1"
     id="stop39" /></linearGradient>
    </defs>
</svg>
