<?xml version="1.0" encoding="UTF-8" standalone="no"?>
<svg
   height="24"
   width="95"
   version="1.1"
   id="svg18"
   viewBox="0 0 227.36296 57.526081"
   sodipodi:docname="flathub-logo-toolbar.svg"
   inkscape:export-filename="flathub-logo-toolbar.svg"
   inkscape:export-xdpi="96"
   inkscape:export-ydpi="96"
   xmlns:inkscape="http://www.inkscape.org/namespaces/inkscape"
   xmlns:sodipodi="http://sodipodi.sourceforge.net/DTD/sodipodi-0.dtd"
   xmlns="http://www.w3.org/2000/svg"
   xmlns:svg="http://www.w3.org/2000/svg">
  <sodipodi:namedview
     id="namedview177"
     pagecolor="#ffffff"
     bordercolor="#666666"
     borderopacity="1.0"
     inkscape:showpageshadow="2"
     inkscape:pageopacity="0.0"
     inkscape:pagecheckerboard="0"
     inkscape:deskcolor="#d1d1d1"
     showgrid="false" />
  <defs
     id="defs22" />
  <g
     style="fill:#ffffff;stroke-width:2.46847"
     id="g16"
     transform="translate(-90.362925,-71.237918)">
    <g
       style="fill:#ffffff;stroke-width:2.46847"
       transform="matrix(1.53113,0,0,1.53113,-151.894,-62.246)"
       id="g10">
      <path
         id="circle2"
         style="stroke-width:0.653113"
         d="m 175.155,95.647003 a 8.467,8.467 0 0 1 -8.467,8.466997 8.467,8.467 0 0 1 -8.467,-8.466997 8.467,8.467 0 0 1 8.467,-8.467 8.467,8.467 0 0 1 8.467,8.467 z" />
      <path
         id="rect4"
         style="stroke-width:0.653113"
         d="m 162.983,108.876 h 7.409 c 2.34508,0 4.233,1.88792 4.233,4.233 v 7.409 c 0,2.34508 -1.88792,4.233 -4.233,4.233 h -7.409 c -2.34508,0 -4.233,-1.88792 -4.233,-4.233 v -7.409 c 0,-2.34508 1.88792,-4.233 4.233,-4.233 z" />
      <path
         style="fill:#ffffff;stroke-width:0.653113"
         d="M 69.514,58.833 H 57.486 a 2.444,2.444 60 0 1 -2.117,-3.666 l 0.89,-1.542 5.124,-8.875 a 2.444,2.444 0 0 1 4.234,0 l 0.89,1.542 5.124,8.875 a 2.444,2.444 120 0 1 -2.117,3.666 z"
         transform="matrix(0.87205,0.50348,0.50348,-0.87205,104.05,109.889)"
         id="path6" />
      <path
         style="fill:#ffffff;stroke-width:6.53113"
         transform="rotate(90)"
         d="m 116.311,-194.992 c 0.88,0 1.588,0.708 1.588,1.588 v 12.7 c 0,0.88 -0.708,1.587 -1.588,1.587 -0.88,0 -1.587,-0.708 -1.587,-1.587 v -12.7 c 0,-0.88 0.708,-1.588 1.587,-1.588 z m -7.937,7.938 c 0,-0.88 0.708,-1.588 1.587,-1.588 h 12.7 c 0.88,0 1.588,0.708 1.588,1.588 0,0.88 -0.708,1.587 -1.588,1.587 h -12.7 c -0.88,0 -1.587,-0.708 -1.587,-1.587 z"
         id="path8" />
    </g>
    <g
       aria-label="Flathub"
       transform="matrix(1.53113,0,0,1.53113,-151.894,-62.246)"
       id="text14"
       style="font-size:26.2396px;font-family:Inter;-inkscape-font-specification:'Inter, @wght=600';font-variation-settings:'wght' 600;stroke-width:6.53113">
      <path
         d="m 212.05727,95.428229 h 10.99295 v 2.178092 h -8.40487 v 5.637409 h 7.58489 v 2.1781 h -7.58489 v 9.13517 h -2.58808 z"
         id="path274" />
      <path
         d="m 227.04766,94.621054 h 2.35747 V 114.557 h -2.35747 z"
         id="path276" />
      <path
         d="m 240.85933,107.34367 q -2.85715,0 -3.959,0.65343 -1.10186,0.65343 -1.10186,2.22934 0,1.25561 0.81998,1.99872 0.8328,0.7303 2.25497,0.7303 1.96028,0 3.13901,-1.38373 1.19155,-1.39654 1.19155,-3.70275 v -0.52531 z m 4.70211,-0.97373 v 8.18706 h -2.35746 v -2.17809 q -0.80718,1.30685 -2.01153,1.93466 -1.20436,0.61499 -2.94683,0.61499 -2.20372,0 -3.51057,-1.22999 -1.29405,-1.24279 -1.29405,-3.31838 0,-2.42153 1.61435,-3.65151 1.62717,-1.22998 4.84305,-1.22998 h 3.30558 v -0.23062 q 0,-1.62716 -1.07623,-2.51121 -1.06343,-0.89686 -2.99808,-0.89686 -1.22999,0 -2.3959,0.29468 -1.16592,0.29468 -2.24216,0.88405 v -2.17809 q 1.29404,-0.49968 2.51121,-0.74312 1.21717,-0.256244 2.37028,-0.256244 3.11339,0 4.65087,1.614354 1.53747,1.61435 1.53747,4.8943 z"
         id="path278" />
      <path
         d="m 252.74914,96.132906 v 4.074314 h 4.85587 v 1.83216 h -4.85587 v 7.78988 q 0,1.75528 0.47406,2.25496 0.48687,0.49968 1.96028,0.49968 h 2.42153 v 1.9731 h -2.42153 q -2.72902,0 -3.76682,-1.01217 -1.03779,-1.02499 -1.03779,-3.71557 v -7.78988 h -1.72966 v -1.83216 h 1.72966 v -4.074314 z"
         id="path280" />
      <path
         d="m 272.63384,105.89588 v 8.66112 h -2.35746 v -8.58424 q 0,-2.03716 -0.79437,-3.04933 -0.79436,-1.01218 -2.38308,-1.01218 -1.90904,0 -3.0109,1.21717 -1.10185,1.21717 -1.10185,3.31839 V 114.557 H 260.6159 V 94.621054 h 2.37028 v 7.815506 q 0.84561,-1.29404 1.9859,-1.93466 1.15311,-0.640614 2.65215,-0.640614 2.47277,0 3.74119,1.537474 1.26842,1.52467 1.26842,4.49712 z"
         id="path282" />
      <path
         d="m 277.09252,108.89396 v -8.68674 h 2.35747 v 8.59705 q 0,2.03716 0.79436,3.06215 0.79436,1.01217 2.38309,1.01217 1.90903,0 3.01089,-1.21717 1.11467,-1.21717 1.11467,-3.31839 v -8.13581 h 2.35746 V 114.557 H 286.753 v -2.20372 q -0.85842,1.30686 -1.99872,1.94747 -1.12748,0.62781 -2.62652,0.62781 -2.47278,0 -3.75401,-1.53748 -1.28123,-1.53748 -1.28123,-4.49712 z m 5.9321,-9.032674 z"
         id="path284" />
      <path
         d="m 304.26742,107.39492 q 0,-2.6009 -1.07623,-4.07431 -1.06342,-1.48623 -2.93402,-1.48623 -1.8706,0 -2.94683,1.48623 -1.06342,1.47341 -1.06342,4.07431 0,2.6009 1.06342,4.08713 1.07623,1.47341 2.94683,1.47341 1.8706,0 2.93402,-1.47341 1.07623,-1.48623 1.07623,-4.08713 z m -8.0205,-5.00961 q 0.74311,-1.28123 1.87059,-1.89622 1.1403,-0.627804 2.71621,-0.627804 2.61371,0 4.24088,2.075594 1.63997,2.07559 1.63997,5.45804 0,3.38245 -1.63997,5.45804 -1.62717,2.0756 -4.24088,2.0756 -1.57591,0 -2.71621,-0.61499 -1.12748,-0.62781 -1.87059,-1.90904 v 2.15247 h -2.37028 V 94.621054 h 2.37028 z"
         id="path286" />
    </g>
  </g>
</svg>
