<?xml version="1.0" encoding="UTF-8" standalone="no"?>
<svg
   id="svg8"
   version="1.1"
   viewBox="0 0 128 128"
   height="128"
   width="128"
   xml:space="preserve"
   xmlns="http://www.w3.org/2000/svg"
   xmlns:svg="http://www.w3.org/2000/svg"
   xmlns:rdf="http://www.w3.org/1999/02/22-rdf-syntax-ns#"
   xmlns:cc="http://creativecommons.org/ns#"
   xmlns:dc="http://purl.org/dc/elements/1.1/"><defs
     id="defs2" /><metadata
     id="metadata5"><rdf:RDF><cc:Work
         rdf:about=""><dc:format>image/svg+xml</dc:format><dc:type
           rdf:resource="http://purl.org/dc/dcmitype/StillImage" /><cc:license
           rdf:resource="http://creativecommons.org/licenses/by-sa/4.0/" /></cc:Work><cc:License
         rdf:about="http://creativecommons.org/licenses/by-sa/4.0/"><cc:permits
           rdf:resource="http://creativecommons.org/ns#Reproduction" /><cc:permits
           rdf:resource="http://creativecommons.org/ns#Distribution" /><cc:requires
           rdf:resource="http://creativecommons.org/ns#Notice" /><cc:requires
           rdf:resource="http://creativecommons.org/ns#Attribution" /><cc:permits
           rdf:resource="http://creativecommons.org/ns#DerivativeWorks" /><cc:requires
           rdf:resource="http://creativecommons.org/ns#ShareAlike" /></cc:License></rdf:RDF></metadata><g
     id="layer1"
     transform="translate(-32.230775,-32.000005)"><g
       id="g2510"
       style="fill:#ffffff;fill-opacity:1;stroke-width:2.21874"
       transform="matrix(1.7034481,0,0,1.7034481,-237.29023,-116.50646)"><circle
         style="fill:#ffffff;fill-opacity:1;stroke-width:0.587043"
         id="circle2502"
         cx="166.68752"
         cy="95.646584"
         r="8.4666662" /><rect
         style="fill:#ffffff;fill-opacity:1;stroke-width:0.587043"
         id="rect2504"
         width="15.875"
         height="15.875"
         x="158.75002"
         y="108.87577"
         rx="4.2333331"
         ry="4.2333331" /><path
         style="fill:#ffffff;fill-opacity:1;stroke-width:0.587043"
         id="path2506"
         d="m 69.513935,58.832927 -1.780602,0 -10.247268,0 a 2.4441161,2.4441161 60 0 1 -2.116667,-3.666174 l 0.890301,-1.542046 5.123634,-8.874395 a 2.4441161,2.4441161 2.5219902e-7 0 1 4.233334,0 l 0.8903,1.542046 5.123635,8.874395 a 2.4441161,2.4441161 120 0 1 -2.116667,3.666174 z"
         transform="matrix(0.8720458,0.50347591,0.50347591,-0.8720458,104.0499,109.88882)" /><path
         id="path2508"
         style="fill:#ffffff;fill-opacity:1;stroke-width:5.87043"
         transform="rotate(90)"
         d="m 116.31115,-194.99159 c 0.87946,0 1.58748,0.70801 1.58748,1.58747 v 12.70005 c 0,0.87946 -0.70802,1.58748 -1.58748,1.58748 -0.87946,0 -1.58747,-0.70802 -1.58747,-1.58748 v -12.70005 c 0,-0.87946 0.70801,-1.58747 1.58747,-1.58747 z m -7.93748,7.9375 c 0,-0.87946 0.70802,-1.58748 1.58749,-1.58748 h 12.70003 c 0.87946,0 1.58748,0.70802 1.58748,1.58748 0,0.87947 -0.70802,1.58749 -1.58748,1.58749 h -12.70003 c -0.87947,0 -1.58749,-0.70802 -1.58749,-1.58749 z" /></g></g></svg>
