<?xml version="1.0" encoding="UTF-8" standalone="no"?>
<!DOCTYPE svg PUBLIC "-//W3C//DTD SVG 1.1//EN" "http://www.w3.org/Graphics/SVG/1.1/DTD/svg11.dtd">
<svg width="100%" height="100%" viewBox="0 0 400 100" version="1.1" xmlns="http://www.w3.org/2000/svg" xmlns:xlink="http://www.w3.org/1999/xlink" xml:space="preserve" xmlns:serif="http://www.serif.com/" style="fill-rule:evenodd;clip-rule:evenodd;stroke-linejoin:round;stroke-miterlimit:2;">
    <g transform="matrix(4.16667,0,0,4.16667,0,0)">
        <rect id="Bold" x="0" y="0" width="95.962" height="24" style="fill:none;"/>
        <clipPath id="_clip1">
            <rect id="Bold1" serif:id="Bold" x="0" y="0" width="95.962" height="24"/>
        </clipPath>
        <g clip-path="url(#_clip1)">
            <g id="g16" transform="matrix(1,0,0,1,-37.6996,-29.7206)">
                <g id="g10" transform="matrix(1.53113,0,0,1.53113,-63.3705,-25.9692)">
                    <path id="circle2" d="M73.147,39.904C73.147,41.842 71.552,43.437 69.614,43.437C67.677,43.437 66.082,41.842 66.082,39.904C66.082,37.966 67.677,36.372 69.614,36.372C71.552,36.372 73.147,37.966 73.147,39.904Z" style="fill-rule:nonzero;"/>
                    <path id="rect4" d="M68.069,45.423L71.16,45.423C72.138,45.423 72.926,46.211 72.926,47.189L72.926,50.28C72.926,51.259 72.138,52.046 71.16,52.046L68.069,52.046C67.09,52.046 66.303,51.259 66.303,50.28L66.303,47.189C66.303,46.211 67.09,45.423 68.069,45.423Z" style="fill-rule:nonzero;"/>
                    <g id="path6" transform="matrix(0.87205,0.50348,0.50348,-0.87205,43.4099,45.8459)">
                        <path d="M29.073,24.545L24.055,24.545C23.691,24.545 23.354,24.351 23.172,24.035C22.99,23.72 22.99,23.331 23.172,23.016L23.543,22.372L25.681,18.67C25.863,18.355 26.2,18.16 26.564,18.16C26.928,18.16 27.266,18.355 27.447,18.67L27.819,19.313L29.956,23.016C30.138,23.331 30.138,23.72 29.956,24.035C29.775,24.351 29.437,24.545 29.073,24.545Z" style="fill-rule:nonzero;"/>
                    </g>
                    <g transform="matrix(0.536134,0,0,0.677182,63.1196,39.6077)">
                        <path d="M29.368,9.815C29.368,9.143 28.678,8.597 27.828,8.597C26.979,8.597 26.289,9.143 26.289,9.815L26.289,17.158C26.289,17.831 26.979,18.377 27.828,18.377C28.678,18.377 29.368,17.831 29.368,17.158L29.368,9.815Z"/>
                    </g>
                    <g transform="matrix(3.28287e-17,0.536134,-0.677182,4.14655e-17,87.1723,33.821)">
                        <path d="M29.368,9.815C29.368,9.143 28.678,8.597 27.828,8.597C26.979,8.597 26.289,9.143 26.289,9.815L26.289,17.158C26.289,17.831 26.979,18.377 27.828,18.377C28.678,18.377 29.368,17.831 29.368,17.158L29.368,9.815Z"/>
                    </g>
                </g>
                <g id="Bold2" serif:id="Bold" transform="matrix(1,0,0,1,41.163,28.1586)">
                    <path d="M30.883,20.008L30.883,6.918L39.551,6.918L39.551,9.199L33.651,9.199L33.651,12.319L38.976,12.319L38.976,14.601L33.651,14.601L33.651,20.008L30.883,20.008Z" style="fill-rule:nonzero;"/>
                    <rect x="40.784" y="6.918" width="2.723" height="13.091" style="fill-rule:nonzero;"/>
                    <path d="M47.904,20.194C47.277,20.194 46.719,20.084 46.229,19.865C45.739,19.645 45.352,19.319 45.069,18.887C44.786,18.454 44.644,17.914 44.644,17.266C44.644,16.721 44.744,16.263 44.944,15.892C45.145,15.521 45.417,15.223 45.763,14.997C46.108,14.771 46.501,14.601 46.942,14.486C47.383,14.371 47.846,14.29 48.332,14.243C48.903,14.183 49.363,14.127 49.713,14.073C50.062,14.02 50.316,13.94 50.474,13.834C50.631,13.727 50.71,13.57 50.71,13.361L50.71,13.322C50.71,12.918 50.583,12.604 50.33,12.383C50.076,12.161 49.717,12.05 49.253,12.05C48.763,12.05 48.373,12.158 48.083,12.373C47.793,12.588 47.601,12.858 47.508,13.182L44.989,12.977C45.117,12.381 45.368,11.864 45.743,11.427C46.118,10.99 46.603,10.654 47.198,10.417C47.792,10.181 48.481,10.062 49.265,10.062C49.811,10.062 50.334,10.126 50.835,10.254C51.335,10.382 51.781,10.58 52.171,10.849C52.561,11.117 52.868,11.461 53.094,11.881C53.32,12.301 53.433,12.802 53.433,13.386L53.433,20.008L50.851,20.008L50.851,18.647L50.774,18.647C50.616,18.954 50.405,19.223 50.141,19.456C49.877,19.688 49.559,19.869 49.189,19.999C48.818,20.129 48.39,20.194 47.904,20.194ZM48.684,18.315C49.084,18.315 49.438,18.235 49.745,18.075C50.052,17.915 50.292,17.699 50.467,17.426C50.642,17.153 50.729,16.844 50.729,16.499L50.729,15.457C50.644,15.513 50.528,15.563 50.381,15.608C50.234,15.652 50.069,15.693 49.885,15.729C49.702,15.765 49.519,15.797 49.336,15.825C49.152,15.853 48.986,15.877 48.837,15.898C48.518,15.945 48.238,16.02 48,16.122C47.761,16.224 47.576,16.362 47.444,16.534C47.312,16.707 47.246,16.921 47.246,17.177C47.246,17.547 47.381,17.83 47.651,18.024C47.922,18.218 48.266,18.315 48.684,18.315Z" style="fill-rule:nonzero;"/>
                    <path d="M60.195,10.19L60.195,12.236L54.282,12.236L54.282,10.19L60.195,10.19ZM55.625,7.838L58.348,7.838L58.348,16.991C58.348,17.243 58.386,17.438 58.463,17.576C58.54,17.715 58.647,17.812 58.786,17.867C58.924,17.922 59.085,17.95 59.268,17.95C59.396,17.95 59.524,17.938 59.652,17.915C59.78,17.892 59.878,17.873 59.946,17.861L60.374,19.887C60.238,19.93 60.046,19.98 59.799,20.037C59.552,20.095 59.251,20.13 58.898,20.143C58.241,20.168 57.667,20.081 57.175,19.881C56.683,19.68 56.3,19.369 56.027,18.947C55.755,18.525 55.621,17.993 55.625,17.349L55.625,7.838Z" style="fill-rule:nonzero;"/>
                    <path d="M64.317,14.332L64.317,20.008L61.594,20.008L61.594,6.918L64.241,6.918L64.241,11.922L64.356,11.922C64.577,11.343 64.935,10.888 65.429,10.558C65.924,10.228 66.544,10.062 67.29,10.062C67.971,10.062 68.567,10.21 69.076,10.507C69.585,10.803 69.982,11.227 70.265,11.779C70.548,12.331 70.688,12.99 70.684,13.757L70.684,20.008L67.961,20.008L67.961,14.243C67.965,13.638 67.813,13.167 67.504,12.83C67.195,12.494 66.763,12.325 66.209,12.325C65.839,12.325 65.511,12.404 65.228,12.562C64.945,12.719 64.723,12.948 64.563,13.249C64.404,13.549 64.322,13.91 64.317,14.332Z" style="fill-rule:nonzero;"/>
                    <path d="M78.552,15.828L78.552,10.19L81.275,10.19L81.275,20.008L78.66,20.008L78.66,18.225L78.558,18.225C78.336,18.8 77.969,19.263 77.455,19.612C76.942,19.962 76.317,20.136 75.579,20.136C74.923,20.136 74.346,19.987 73.847,19.689C73.348,19.391 72.96,18.967 72.681,18.417C72.401,17.867 72.26,17.209 72.255,16.442L72.255,10.19L74.978,10.19L74.978,15.956C74.983,16.535 75.138,16.994 75.445,17.33C75.752,17.667 76.163,17.835 76.679,17.835C77.007,17.835 77.314,17.759 77.599,17.608C77.885,17.457 78.116,17.232 78.293,16.934C78.47,16.636 78.556,16.267 78.552,15.828Z" style="fill-rule:nonzero;"/>
                    <path d="M82.923,20.008L82.923,6.918L85.646,6.918L85.646,11.839L85.729,11.839C85.848,11.575 86.022,11.306 86.25,11.031C86.478,10.756 86.776,10.526 87.145,10.34C87.514,10.155 87.973,10.062 88.522,10.062C89.238,10.062 89.899,10.249 90.504,10.622C91.109,10.995 91.593,11.555 91.955,12.303C92.317,13.051 92.498,13.987 92.498,15.112C92.498,16.207 92.323,17.131 91.971,17.883C91.619,18.635 91.142,19.204 90.539,19.59C89.936,19.975 89.262,20.168 88.516,20.168C87.988,20.168 87.539,20.081 87.171,19.906C86.802,19.731 86.5,19.511 86.266,19.245C86.032,18.978 85.853,18.709 85.729,18.436L85.608,18.436L85.608,20.008L82.923,20.008ZM85.589,15.099C85.589,15.683 85.67,16.192 85.831,16.627C85.993,17.062 86.228,17.399 86.535,17.64C86.841,17.881 87.214,18.001 87.653,18.001C88.096,18.001 88.471,17.879 88.778,17.634C89.085,17.389 89.318,17.048 89.478,16.611C89.638,16.174 89.718,15.67 89.718,15.099C89.718,14.533 89.639,14.034 89.481,13.604C89.324,13.173 89.091,12.837 88.785,12.594C88.478,12.351 88.101,12.229 87.653,12.229C87.21,12.229 86.836,12.346 86.531,12.581C86.227,12.815 85.993,13.148 85.831,13.578C85.67,14.008 85.589,14.516 85.589,15.099Z" style="fill-rule:nonzero;"/>
                </g>
            </g>
        </g>
    </g>
</svg>
