<?xml version="1.0" encoding="UTF-8"?>
<svg width="219" height="59.106" version="1.1" xmlns="http://www.w3.org/2000/svg">
 <g transform="matrix(.89089 0 0 .89089 -2448.3 -532.77)" stroke-width="1.1225">
  <g transform="matrix(1.7388 0 0 1.7388 2471.7 448.13)" stroke-width="2.4398">
   <g stroke-width="6.4554" aria-label="Flathub">
    <path d="m211.36 114.14h3.3045v-7.7491h7.5798v-2.7701h-7.5798v-4.9523h8.3815v-2.7701h-11.686z"/>
    <path d="m229.13 95.901h-3.2243v18.242h3.2243z"/>
    <path d="m236.38 114.42c2.1466 0 3.4292-1.0065 4.017-2.1555h0.10689v1.8794h3.0996v-9.1564c0-3.6162-2.9482-4.7029-5.558-4.7029-2.877 0-5.0859 1.2826-5.7985 3.7766l3.0106 0.42754c0.32065-0.93524 1.2292-1.7369 2.8057-1.7369 1.4964 0 2.3158 0.766 2.3158 2.111v0.0534c0 0.92633-0.97086 0.97086-3.3847 1.2292-2.6543 0.28502-5.1928 1.0777-5.1928 4.1596 0 2.6899 1.9684 4.115 4.5782 4.115zm0.83725-2.3693c-1.345 0-2.3069-0.61459-2.3069-1.7992 0-1.2381 1.0778-1.7547 2.5207-1.9595 0.84617-0.11579 2.5385-0.32956 2.9571-0.66802v1.6122c0 1.5231-1.2292 2.8146-3.1709 2.8146z"/>
    <path d="m253.69 100.46h-2.6988v-3.2778h-3.2243v3.2778h-1.9417v2.494h1.9417v7.6066c-0.0178 2.5741 1.8526 3.8389 4.2754 3.7677 0.91742-0.0267 1.5498-0.20486 1.8972-0.32066l-0.54333-2.5207c-0.17814 0.0445-0.54333 0.1247-0.94414 0.1247-0.81054 0-1.4608-0.28502-1.4608-1.5854v-7.0722h2.6988z"/>
    <path d="m259.9 106.13c0-1.9774 1.2292-3.1174 2.9571-3.1174 1.6923 0 2.6899 1.0778 2.6899 2.9215v8.2122h3.2243v-8.711c0-3.3045-1.8705-5.1482-4.7118-5.1482-2.1021 0-3.4381 0.95305-4.0705 2.5029h-0.16033v-6.8851h-3.1531v18.242h3.2243z"/>
    <path d="m280.77 108.39c0 2.0842-1.4875 3.1174-2.9126 3.1174-1.5498 0-2.583-1.0956-2.583-2.8324v-8.2122h-3.2243v8.711c0 3.2867 1.8705 5.1482 4.5604 5.1482 2.0486 0 3.4915-1.0778 4.115-2.6098h0.14251v2.4316h3.1264v-13.681h-3.2243z"/>
    <path d="m287.45 114.14h3.1709v-2.1555h0.18704c0.5077 0.99758 1.5676 2.396 3.9191 2.396 3.2243 0 5.6381-2.5563 5.6381-7.0632 0-4.5604-2.485-7.0365-5.647-7.0365-2.4138 0-3.4203 1.4518-3.9102 2.4405h-0.1336v-6.8228h-3.2243zm3.162-6.8406c0-2.6543 1.1401-4.3733 3.2154-4.3733 2.1466 0 3.251 1.8259 3.251 4.3733 0 2.5652-1.1223 4.4357-3.251 4.4357-2.0575 0-3.2154-1.7814-3.2154-4.4357z"/>
   </g>
  </g>
  <g transform="matrix(1.7622 0 0 1.7622 2470.4 445.42)">
   <circle cx="166.69" cy="95.647" r="9.0478" stroke-width=".63698"/>
   <rect x="158.75" y="108.33" width="15.875" height="15.875" rx="4.2333" ry="4.2333" stroke-width=".63698"/>
   <path transform="matrix(.91132 .52615 .52615 -.91132 101.23 110.53)" d="m69.514 58.833h-1.7806-10.247a2.4441 2.4441 60 0 1-2.1167-3.6662l6.0139-10.416a2.4441 2.4441 2.522e-7 0 1 4.2333 0l6.0139 10.416a2.4441 2.4441 120 0 1-2.1167 3.6662z" stroke-width=".60953"/>
   <path transform="rotate(90)" d="m116.31-194.99c0.87946 0 1.5875 0.70801 1.5875 1.5875v12.7c0 0.87946-0.70802 1.5875-1.5875 1.5875s-1.5875-0.70802-1.5875-1.5875v-12.7c0-0.87946 0.70801-1.5875 1.5875-1.5875zm-7.9375 7.9375c0-0.87946 0.70802-1.5875 1.5875-1.5875h12.7c0.87946 0 1.5875 0.70802 1.5875 1.5875 0 0.87947-0.70802 1.5875-1.5875 1.5875h-12.7c-0.87947 0-1.5875-0.70802-1.5875-1.5875z" stroke-width="6.3698"/>
  </g>
 </g>
</svg>
