<?xml version="1.0" encoding="UTF-8"?>
<svg width="16" height="16" version="1.1" viewBox="0 0 16 16" xmlns="http://www.w3.org/2000/svg" xmlns:cc="http://creativecommons.org/ns#" xmlns:dc="http://purl.org/dc/elements/1.1/" xmlns:rdf="http://www.w3.org/1999/02/22-rdf-syntax-ns#">
 <metadata>
  <rdf:RDF>
   <cc:Work rdf:about="">
    <dc:format>image/svg+xml</dc:format>
    <dc:type rdf:resource="http://purl.org/dc/dcmitype/StillImage"/>
    <cc:license rdf:resource="http://creativecommons.org/licenses/by-sa/4.0/"/>
   </cc:Work>
   <cc:License rdf:about="http://creativecommons.org/licenses/by-sa/4.0/">
    <cc:permits rdf:resource="http://creativecommons.org/ns#Reproduction"/>
    <cc:permits rdf:resource="http://creativecommons.org/ns#Distribution"/>
    <cc:requires rdf:resource="http://creativecommons.org/ns#Notice"/>
    <cc:requires rdf:resource="http://creativecommons.org/ns#Attribution"/>
    <cc:permits rdf:resource="http://creativecommons.org/ns#DerivativeWorks"/>
    <cc:requires rdf:resource="http://creativecommons.org/ns#ShareAlike"/>
   </cc:License>
  </rdf:RDF>
 </metadata>
 <g transform="matrix(.42586 0 0 .42586 -67.38 -37.127)" fill="currentColor">
  <g stroke-width="2.3482">
   <circle cx="166.69" cy="95.647" r="8.4667"/>
   <rect x="158.75" y="108.88" width="15.875" height="15.875" rx="4.2333" ry="4.2333"/>
   <path transform="matrix(.87205 .50348 .50348 -.87205 104.05 109.89)" d="m69.514 58.833h-1.7806-10.247a2.4441 2.4441 60 0 1-2.1167-3.6662l6.0139-10.416a2.4441 2.4441 2.522e-7 0 1 4.2333 0l6.0139 10.416a2.4441 2.4441 120 0 1-2.1167 3.6662z"/>
  </g>
  <path transform="rotate(90)" d="m116.31-194.99c0.87946 0 1.5875 0.70801 1.5875 1.5875v12.7c0 0.87946-0.70802 1.5875-1.5875 1.5875s-1.5875-0.70802-1.5875-1.5875v-12.7c0-0.87946 0.70801-1.5875 1.5875-1.5875zm-7.9375 7.9375c0-0.87946 0.70802-1.5875 1.5875-1.5875h12.7c0.87946 0 1.5875 0.70802 1.5875 1.5875 0 0.87947-0.70802 1.5875-1.5875 1.5875h-12.7c-0.87947 0-1.5875-0.70802-1.5875-1.5875z" stroke-width="23.482"/>
 </g>
 <style>
  path, g { fill: #000000; }
  @media (prefers-color-scheme: dark) { path, g { fill: #ffffff; }
  }
</style>
</svg>
