<?xml version="1.0" encoding="UTF-8" standalone="no"?>
<svg
   inkscape:version="1.1.2 (0a00cf5339, 2022-02-04)"
   id="svg8"
   version="1.1"
   viewBox="0 0 400 300"
   height="300"
   width="400"
   sodipodi:docname="landing-page.svg"
   xmlns:inkscape="http://www.inkscape.org/namespaces/inkscape"
   xmlns:sodipodi="http://sodipodi.sourceforge.net/DTD/sodipodi-0.dtd"
   xmlns:xlink="http://www.w3.org/1999/xlink"
   xmlns="http://www.w3.org/2000/svg"
   xmlns:svg="http://www.w3.org/2000/svg"
   xmlns:rdf="http://www.w3.org/1999/02/22-rdf-syntax-ns#"
   xmlns:cc="http://creativecommons.org/ns#"
   xmlns:dc="http://purl.org/dc/elements/1.1/">
  <defs
     id="defs2">
    <linearGradient
       inkscape:collect="always"
       xlink:href="#linearGradient1676"
       id="linearGradient1678"
       x1="1041.0272"
       y1="560.33557"
       x2="1209.0251"
       y2="370.4892"
       gradientUnits="userSpaceOnUse"
       gradientTransform="matrix(0.66207182,0,0,0.66207182,-545.88965,-113.67564)" />
    <linearGradient
       inkscape:collect="always"
       id="linearGradient1676">
      <stop
         style="stop-color:#2ec27e;stop-opacity:1;"
         offset="0"
         id="stop1672" />
      <stop
         style="stop-color:#26a269;stop-opacity:1"
         offset="1"
         id="stop1674" />
    </linearGradient>
    <radialGradient
       inkscape:collect="always"
       xlink:href="#linearGradient890"
       id="radialGradient928"
       gradientUnits="userSpaceOnUse"
       cx="40.084908"
       cy="84.553223"
       fx="40.084908"
       fy="84.553223"
       r="10" />
    <linearGradient
       inkscape:collect="always"
       id="linearGradient890">
      <stop
         style="stop-color:#241f31;stop-opacity:1;"
         offset="0"
         id="stop886" />
      <stop
         style="stop-color:#241f31;stop-opacity:1;"
         offset="0.40975234"
         id="stop896" />
      <stop
         style="stop-color:#3d3d3d;stop-opacity:1"
         offset="0.7329222"
         id="stop894" />
      <stop
         style="stop-color:#241f31;stop-opacity:1"
         offset="1"
         id="stop888" />
    </linearGradient>
    <radialGradient
       inkscape:collect="always"
       xlink:href="#linearGradient974"
       id="radialGradient976"
       cx="115.57658"
       cy="68.717064"
       fx="115.57658"
       fy="68.717064"
       r="3.5243852"
       gradientUnits="userSpaceOnUse"
       gradientTransform="matrix(0.54753556,0.14671171,-0.14671146,0.54753463,62.290905,15.561076)" />
    <linearGradient
       inkscape:collect="always"
       id="linearGradient974">
      <stop
         style="stop-color:#fceeae;stop-opacity:1"
         offset="0"
         id="stop970" />
      <stop
         style="stop-color:#f6d32d;stop-opacity:1"
         offset="1"
         id="stop972" />
    </linearGradient>
    <radialGradient
       inkscape:collect="always"
       xlink:href="#linearGradient974"
       id="radialGradient1004"
       gradientUnits="userSpaceOnUse"
       gradientTransform="matrix(0.54753556,0.14671171,-0.14671146,0.54753463,62.290905,15.561076)"
       cx="112.63802"
       cy="56.525459"
       fx="112.63802"
       fy="56.525459"
       r="3.5243852" />
    <radialGradient
       inkscape:collect="always"
       xlink:href="#linearGradient890"
       id="radialGradient892"
       cx="99.970085"
       cy="84.553223"
       fx="99.970085"
       fy="84.553223"
       r="10"
       gradientUnits="userSpaceOnUse" />
    <radialGradient
       inkscape:collect="always"
       xlink:href="#linearGradient2846"
       id="radialGradient2848"
       cx="100"
       cy="68.882042"
       fx="100"
       fy="68.882042"
       r="10.807618"
       gradientTransform="matrix(1.5729645,0,0,0.71692189,-57.296453,22.616956)"
       gradientUnits="userSpaceOnUse" />
    <linearGradient
       inkscape:collect="always"
       id="linearGradient2846">
      <stop
         style="stop-color:#8ff0a4;stop-opacity:1;"
         offset="0"
         id="stop2842" />
      <stop
         style="stop-color:#8ff0a4;stop-opacity:0;"
         offset="1"
         id="stop2844" />
    </linearGradient>
    <linearGradient
       inkscape:collect="always"
       xlink:href="#linearGradient2876"
       id="linearGradient2878"
       x1="73.012444"
       y1="80.998283"
       x2="73.012444"
       y2="72.313438"
       gradientUnits="userSpaceOnUse"
       gradientTransform="translate(1.0537109)" />
    <linearGradient
       inkscape:collect="always"
       id="linearGradient2876">
      <stop
         style="stop-color:#c0bfbc;stop-opacity:1;"
         offset="0"
         id="stop2872" />
      <stop
         style="stop-color:#ffffff;stop-opacity:0.93325895"
         offset="1"
         id="stop2874" />
    </linearGradient>
    <inkscape:path-effect
       effect="fillet_chamfer"
       id="path-effect908"
       is_visible="true"
       lpeversion="1"
       satellites_param="F,0,0,1,0,0,0,1 @ F,0,0,1,0,2.958496,0,1 @ F,0,0,1,0,0,0,1"
       unit="px"
       method="auto"
       mode="F"
       radius="0"
       chamfer_steps="1"
       flexible="false"
       use_knot_distance="true"
       apply_no_radius="true"
       apply_with_radius="true"
       only_selected="false"
       hide_knots="false" />
    <linearGradient
       inkscape:collect="always"
       xlink:href="#linearGradient2876"
       id="linearGradient2920"
       gradientUnits="userSpaceOnUse"
       x1="73.012444"
       y1="80.998283"
       x2="73.012444"
       y2="72.313438"
       gradientTransform="translate(0,0.92968966)" />
    <linearGradient
       inkscape:collect="always"
       xlink:href="#linearGradient2876"
       id="linearGradient2918"
       gradientUnits="userSpaceOnUse"
       x1="73.012444"
       y1="87.056877"
       x2="73.012444"
       y2="80.724327" />
    <inkscape:path-effect
       effect="fillet_chamfer"
       id="path-effect31"
       is_visible="true"
       lpeversion="1"
       satellites_param="F,0,0,1,0,0,0,1 @ F,0,0,1,0,2.958496,0,1 @ F,0,0,1,0,0,0,1"
       unit="px"
       method="auto"
       mode="F"
       radius="0"
       chamfer_steps="1"
       flexible="false"
       use_knot_distance="true"
       apply_no_radius="true"
       apply_with_radius="true"
       only_selected="false"
       hide_knots="false" />
    <radialGradient
       inkscape:collect="always"
       xlink:href="#linearGradient890"
       id="radialGradient968"
       gradientUnits="userSpaceOnUse"
       cx="84.792648"
       cy="110.13238"
       fx="84.792648"
       fy="110.13238"
       r="10"
       gradientTransform="matrix(0.5963829,0,0,0.5963829,34.360924,44.991085)" />
    <inkscape:path-effect
       effect="fillet_chamfer"
       id="path-effect1017"
       is_visible="true"
       lpeversion="1"
       satellites_param="F,0,0,1,0,0,0,1 @ F,0,0,1,0,0,0,1 @ F,0,0,1,0,1.9999974,0,1 @ F,0,1,1,0,1.9999974,0,1"
       unit="px"
       method="auto"
       mode="F"
       radius="0"
       chamfer_steps="1"
       flexible="false"
       use_knot_distance="true"
       apply_no_radius="true"
       apply_with_radius="true"
       only_selected="false"
       hide_knots="false" />
  </defs>
  <sodipodi:namedview
     units="px"
     borderlayer="true"
     inkscape:showpageshadow="false"
     showgrid="false"
     inkscape:document-rotation="0"
     inkscape:current-layer="layer1"
     inkscape:document-units="px"
     inkscape:cy="560"
     inkscape:cx="400"
     inkscape:zoom="0.35"
     inkscape:pageshadow="2"
     inkscape:pageopacity="0"
     borderopacity="1"
     bordercolor="#383838"
     pagecolor="#1f1f1f"
     id="base"
     inkscape:pagecheckerboard="1"
     width="400px" />
  <metadata
     id="metadata5">
    <rdf:RDF>
      <cc:Work
         rdf:about="">
        <dc:format>image/svg+xml</dc:format>
        <dc:type
           rdf:resource="http://purl.org/dc/dcmitype/StillImage" />
        <cc:license
           rdf:resource="http://creativecommons.org/licenses/by-sa/4.0/" />
      </cc:Work>
      <cc:License
         rdf:about="http://creativecommons.org/licenses/by-sa/4.0/">
        <cc:permits
           rdf:resource="http://creativecommons.org/ns#Reproduction" />
        <cc:permits
           rdf:resource="http://creativecommons.org/ns#Distribution" />
        <cc:requires
           rdf:resource="http://creativecommons.org/ns#Notice" />
        <cc:requires
           rdf:resource="http://creativecommons.org/ns#Attribution" />
        <cc:permits
           rdf:resource="http://creativecommons.org/ns#DerivativeWorks" />
        <cc:requires
           rdf:resource="http://creativecommons.org/ns#ShareAlike" />
      </cc:License>
    </rdf:RDF>
  </metadata>
  <g
     id="layer1"
     inkscape:groupmode="layer"
     inkscape:label="Layer 1">
    <path
       id="rect4660"
       style="fill:url(#linearGradient1678);fill-opacity:1;stroke-width:0.330562"
       d="m 127.97698,72.9562 v 0.22626 c 0,8.71514 7.06504,15.78016 15.78015,15.78016 h 7.906 c 4.42496,0 8.02021,3.57189 8.04901,7.99678 0,4.3806 -3.565,7.92432 -7.94553,7.89652 H 49.770235 c -8.71515,0 -15.780171,7.06502 -15.780171,15.78017 v 0.22625 c 0,8.71515 7.065021,15.78017 15.780171,15.78017 h 7.736938 c 4.372061,-2e-5 7.916331,3.54423 7.916331,7.9163 v 0.0607 c 0,4.37206 -3.54427,7.91632 -7.916331,7.9163 H 33.738967 c -8.638952,0 -15.642202,7.00325 -15.642202,15.6422 v 0.50218 c -7e-6,8.63895 7.00325,15.64221 15.642202,15.64221 h 23.768206 c 4.372061,-2e-5 7.916321,3.54424 7.916331,7.91629 v 0.0607 c 0,4.37206 -3.54427,7.91632 -7.916331,7.9163 h -7.736938 c -8.71515,0 -15.780171,7.06501 -15.780171,15.78016 v 0.22626 c 0,8.71515 7.065021,15.78017 15.780171,15.78017 H 159.28344 c 4.3614,-1e-5 7.897,3.53559 7.897,7.89698 v 0.0993 c 0,4.36138 -3.5356,7.89698 -7.897,7.89698 -8.61381,0.10135 -15.51452,7.16636 -15.41316,15.78016 v 0.22625 c 0,8.71517 7.06504,15.7802 15.78022,15.78017 h 128.75456 c 8.71518,3e-5 15.78022,-7.065 15.78022,-15.78017 v -0.22625 c 0,-8.71516 -7.06504,-15.78019 -15.78022,-15.78016 -4.35756,-0.004 -7.887,-3.53942 -7.88316,-7.89698 v -0.0993 c 0,-4.36139 3.5356,-7.89699 7.897,-7.89698 h 47.66606 c 8.71518,2e-5 15.78022,-7.065 15.78022,-15.78017 v -0.22626 c 0,-8.71516 -7.06504,-15.78019 -15.78022,-15.78016 h -8.44334 c -4.37206,-2e-5 -7.91626,-3.54427 -7.91626,-7.9163 v -0.0607 c 0,-4.37203 3.5442,-7.91627 7.91626,-7.91629 h 24.33664 c 8.71518,3e-5 15.78021,-7.065 15.78021,-15.78016 v -0.22627 c 0,-8.71516 -7.06503,-15.78019 -15.78021,-15.78016 h -24.33664 c -4.37206,-2e-5 -7.91626,-3.54426 -7.91626,-7.9163 v -0.0607 c 0,-4.37204 3.5442,-7.91628 7.91626,-7.9163 h 8.44334 c 8.71518,2e-5 15.78022,-7.065 15.78022,-15.78017 v -0.22625 c 0,-8.71517 -7.06504,-15.78019 -15.78022,-15.78017 h -55.61271 c -4.45892,2e-5 -8.07364,-3.61465 -8.07364,-8.07359 0.0701,-4.38883 3.68483,-7.88984 8.07364,-7.81971 h 7.93281 c 8.71518,3e-5 15.78022,-7.065 15.78022,-15.78016 V 72.9562 c 0,-8.715166 -7.06504,-15.780194 -15.78022,-15.780168 H 143.75713 c -8.71511,7e-6 -15.78015,7.065028 -15.78015,15.780168 z"
       sodipodi:nodetypes="cccccccccccccccccccccccccccccccccccccssssssssssssssssssssssccccssscsc" />
    <g
       id="layer2"
       inkscape:label="vectors"
       transform="matrix(-2.3383046,0,0,2.3383046,406.71663,-11.598274)">
      <circle
         style="font-variation-settings:normal;opacity:1;vector-effect:none;fill:url(#radialGradient928);fill-opacity:1;stroke:none;stroke-width:2;stroke-linecap:round;stroke-linejoin:miter;stroke-miterlimit:4;stroke-dasharray:2, 4;stroke-dashoffset:0;stroke-opacity:1;stop-color:#000000;stop-opacity:1"
         id="path869"
         cx="40"
         cy="85"
         r="10" />
      <circle
         style="fill:#f6f5f4;stroke:none;stroke-width:0.978518;stroke-linecap:round;stroke-dasharray:0.978518, 1.95703;stop-color:#000000"
         id="circle867"
         cx="40"
         cy="85"
         r="4.8925781" />
      <path
         id="circle930"
         style="font-variation-settings:normal;opacity:1;vector-effect:none;fill:#000000;fill-opacity:0.20574;stroke:none;stroke-width:2;stroke-linecap:round;stroke-linejoin:miter;stroke-miterlimit:4;stroke-dasharray:2, 4;stroke-dashoffset:0;stroke-opacity:1;stop-color:#000000;stop-opacity:1"
         d="M 39.980469,75 A 10,10 0 0 0 30,85 10,10 0 0 0 30.203125,87 H 49.798828 A 10,10 0 0 0 50,85 10,10 0 0 0 40,75 a 10,10 0 0 0 -0.01953,0 z" />
      <path
         id="path2924"
         style="fill:#deddda;stroke:none;stroke-width:2;stroke-linecap:round;stroke-dasharray:2, 4;stop-color:#000000"
         d="m 111,72.269472 h 7.5 c 1.385,0 2.5,1.115 2.5,2.5 0,1.385 -0.0597,8.203811 -0.0597,8.203811 H 111 Z"
         sodipodi:nodetypes="cssccc" />
      <circle
         style="fill:url(#radialGradient976);fill-opacity:1;stroke:none;stroke-width:2.12496;stroke-linecap:round;stroke-linejoin:bevel;stroke-dasharray:2.12496, 4.24992;stroke-opacity:1;stop-color:#000000"
         id="path2860"
         cx="114.48234"
         cy="71.512604"
         r="3.5243852" />
      <circle
         style="font-variation-settings:normal;opacity:1;vector-effect:none;fill:url(#radialGradient1004);fill-opacity:1;stroke:none;stroke-width:2.12496;stroke-linecap:round;stroke-linejoin:bevel;stroke-miterlimit:4;stroke-dasharray:2.12496, 4.24992;stroke-dashoffset:0;stroke-opacity:1;stop-color:#000000;stop-opacity:1"
         id="circle2862"
         cx="114.48234"
         cy="64.414581"
         r="3.5243852" />
      <rect
         style="fill:#0f402a;fill-opacity:1;stroke:none;stroke-width:2;stroke-linecap:round;stroke-linejoin:bevel;stroke-dasharray:2, 4;stroke-opacity:1;stop-color:#000000"
         id="rect2858"
         width="30"
         height="20"
         x="85"
         y="65"
         rx="0"
         ry="0" />
      <path
         id="path2840"
         style="fill:#9a9996;stroke:none;stroke-width:2;stroke-linecap:round;stroke-dasharray:2, 4;stop-color:#000000"
         d="m 89,80 h -7.5 c -1.385,0 -2.5,1.115 -2.5,2.5 0,1.385 1.115,2.5 2.5,2.5 H 89 Z"
         sodipodi:nodetypes="cssscc" />
      <rect
         style="fill:#deddda;stroke:none;stroke-width:1.99413;stroke-linecap:round;stroke-dasharray:1.99413, 3.98826;stop-color:#000000"
         id="rect40"
         width="70"
         height="70"
         x="15"
         y="15"
         rx="5.2428789"
         ry="5.2428789" />
      <path
         id="rect60"
         style="fill:#c0bfbc;stroke:none;stroke-width:1.99413;stroke-linecap:round;stroke-dasharray:1.99413, 3.98826;stop-color:#000000"
         d="m 15,77.757812 v 2 C 15,82.662367 17.337633,85 20.242188,85 H 79.757812 C 82.662367,85 85,82.662367 85,79.757812 v -2 C 85,80.662367 82.662367,83 79.757812,83 H 20.242188 C 17.337633,83 15,80.662367 15,77.757812 Z" />
      <rect
         style="fill:#ffffff;stroke:none;stroke-width:0.75371;stroke-linecap:round;stroke-dasharray:0.75371, 1.50742;stop-color:#000000"
         id="rect867"
         width="70"
         height="10"
         x="15"
         y="15" />
      <circle
         style="fill:url(#radialGradient892);fill-opacity:1;stroke:none;stroke-width:2;stroke-linecap:round;stroke-dasharray:2, 4;stop-color:#000000"
         id="circle871"
         cx="100.07919"
         cy="85"
         r="10" />
      <rect
         style="fill:#2ec27e;fill-opacity:1;stroke:none;stroke-width:2;stroke-linecap:round;stroke-dasharray:2, 4;stop-color:#000000"
         id="rect877"
         width="15"
         height="10"
         x="85"
         y="35" />
      <path
         id="path879"
         style="fill:#2ec27e;stroke:none;stroke-width:1px;stroke-linecap:butt;stroke-linejoin:miter;stroke-opacity:1"
         d="m 85,65 v 15 h 4.046875 A 12.112872,12.112872 0 0 1 100.08008,72.886719 12.112872,12.112872 0 0 1 111.11133,80 H 115 V 65 Z" />
      <path
         id="circle884"
         style="fill:url(#radialGradient2848);fill-opacity:1;stroke:none;stroke-width:2.36897;stroke-linecap:round;stroke-dasharray:2.36897, 4.73794;stop-color:#000000"
         d="m 99.962891,69.685547 a 11.084624,12.657207 0 0 0 -10.691407,9.845703 12.112872,12.112872 0 0 1 10.808596,-6.644531 12.112872,12.112872 0 0 1 10.80664,6.65039 11.084624,12.657207 0 0 0 -10.80664,-9.851562 11.084624,12.657207 0 0 0 -0.117189,0 z" />
      <path
         style="fill:#62a0ea;stroke:none;stroke-width:1px;stroke-linecap:butt;stroke-linejoin:miter;stroke-opacity:1"
         d="m 100,35 15,20 V 65 L 100,45 Z"
         id="path889" />
      <path
         style="fill:#3584e4;stroke:none;stroke-width:1px;stroke-linecap:butt;stroke-linejoin:miter;stroke-opacity:1"
         d="m 85,45 v 20 h 30 L 100,45 Z"
         id="path891"
         sodipodi:nodetypes="ccccc" />
      <circle
         style="fill:#f6f5f4;stroke:none;stroke-width:0.978518;stroke-linecap:round;stroke-dasharray:0.978518, 1.95703;stop-color:#000000"
         id="circle869"
         cx="99.787949"
         cy="85"
         r="4.8925781" />
      <path
         sodipodi:nodetypes="cccccccccccccccccc"
         inkscape:connector-curvature="0"
         id="path4074"
         d="M 49.960896,34.975794 35.058872,43.743895 35,61.231817 50.033488,70 65.066299,61.246548 65.000839,43.743895 Z m 0,1.390208 v 12.660041 l 1.752579,1.067249 -1.752579,1.028502 -12.614991,-7.428825 z m 14.005673,8.144677 0.04684,16.12181 -13.307473,7.605518 V 52.179089 Z"
         style="color:#000000;clip-rule:nonzero;display:inline;overflow:visible;visibility:visible;isolation:auto;mix-blend-mode:normal;color-interpolation:sRGB;color-interpolation-filters:linearRGB;solid-color:#000000;solid-opacity:1;vector-effect:none;fill:#1a5fb4;fill-opacity:1;fill-rule:nonzero;stroke:none;stroke-width:0.651798;stroke-linecap:square;stroke-linejoin:round;stroke-miterlimit:4;stroke-dasharray:none;stroke-dashoffset:0;stroke-opacity:1;marker:none;marker-start:none;marker-mid:none;marker-end:none;paint-order:normal;color-rendering:auto;image-rendering:auto;shape-rendering:auto;text-rendering:auto;enable-background:accumulate" />
      <path
         id="rect2837"
         style="fill:#9a9996;stroke:none;stroke-width:2;stroke-linecap:round;stroke-dasharray:2, 4;stop-color:#000000"
         d="m 111,80 h 7.5 c 1.385,0 2.5,1.115 2.5,2.5 0,1.385 -1.115,2.5 -2.5,2.5 H 111 Z"
         sodipodi:nodetypes="cssscc" />
      <g
         id="g856"
         transform="translate(67.633517)">
        <circle
           style="fill:#241f31;stroke:none;stroke-width:1.18915;stroke-linecap:round;stroke-dasharray:1.18915, 2.37828;stop-color:#000000"
           id="circle875"
           cx="84.967995"
           cy="104.90497"
           r="5.9457145" />
        <circle
           style="fill:#3d3846;stroke:none;stroke-width:0.729818;stroke-linecap:round;stroke-dasharray:0.729818, 1.45963;stop-color:#000000"
           id="circle2852"
           cx="84.998291"
           cy="104.87467"
           r="3.6490848" />
        <path
           id="rect33"
           style="fill:#9a9996;stroke:none;stroke-width:2;stroke-linecap:round;stroke-dasharray:2, 4;stop-color:#000000"
           d="m 53.002023,112.54464 h 21.039481 v 4.29576 H 53.002023 c -1.189924,0 -2.147878,-0.95796 -2.147878,-2.14788 0,-1.18993 0.957954,-2.14788 2.147878,-2.14788 z"
           sodipodi:nodetypes="sccsss" />
        <path
           style="fill:none;stroke:url(#linearGradient2878);stroke-width:1px;stroke-linecap:butt;stroke-linejoin:miter;stroke-opacity:1"
           d="m 80.053711,68.519776 h -3.155029 a 2.958496,2.958496 135 0 0 -2.958496,2.958496 v 39.288868"
           id="path906"
           inkscape:path-effect="#path-effect908"
           inkscape:original-d="M 80.053711,68.519776 H 73.940186 V 110.76714"
           sodipodi:nodetypes="ccc" />
        <path
           style="fill:none;stroke:#3d3846;stroke-width:1px;stroke-linecap:round;stroke-linejoin:round;stroke-opacity:1"
           d="M 74.141759,98.571772 85,105 H 74.353155"
           id="path2854"
           sodipodi:nodetypes="ccc" />
        <path
           style="font-variation-settings:normal;opacity:1;vector-effect:none;fill:none;fill-opacity:1;stroke:url(#linearGradient2920);stroke-width:1px;stroke-linecap:butt;stroke-linejoin:miter;stroke-miterlimit:4;stroke-dasharray:none;stroke-dashoffset:0;stroke-opacity:1;stop-color:#000000;stop-opacity:1"
           d="m 73.998465,105.0415 11.134015,6.42822 H 74.136719"
           id="path2856" />
        <path
           id="path859"
           style="fill:#9a9996;stroke:none;stroke-width:2;stroke-linecap:round;stroke-dasharray:2, 4;stop-color:#000000"
           d="m 52.483733,106.54464 h 21.039481 v 4.29576 H 52.483733 c -1.189924,0 -2.147878,-0.95796 -2.147878,-2.14788 0,-1.18993 0.957954,-2.14788 2.147878,-2.14788 z"
           sodipodi:nodetypes="sccsss" />
        <path
           style="font-variation-settings:normal;opacity:1;vector-effect:none;fill:none;fill-opacity:1;stroke:url(#linearGradient2918);stroke-width:1px;stroke-linecap:butt;stroke-linejoin:miter;stroke-miterlimit:4;stroke-dasharray:none;stroke-dashoffset:0;stroke-opacity:1;stop-color:#000000;stop-opacity:1"
           d="M 80.155029,75.735178 H 77 a 2.958496,2.958496 135 0 0 -2.958496,2.958496 V 116.8404"
           id="path29"
           inkscape:path-effect="#path-effect31"
           inkscape:original-d="M 80.155029,75.735178 H 74.041504 V 116.8404" />
        <circle
           style="font-variation-settings:normal;opacity:1;vector-effect:none;fill:url(#radialGradient968);fill-opacity:1;stroke:none;stroke-width:2;stroke-linecap:round;stroke-linejoin:miter;stroke-miterlimit:4;stroke-dasharray:2, 4;stroke-dashoffset:0;stroke-opacity:1;stop-color:#000000;stop-opacity:1"
           id="circle873"
           cx="84.967667"
           cy="111.03114"
           r="6.019515" />
        <rect
           style="fill:#986a44;stroke:none;stroke-width:2;stroke-linecap:round;stroke-dasharray:2, 4;stop-color:#000000"
           id="rect902"
           width="10"
           height="3"
           x="77"
           y="74"
           rx="1.5"
           ry="1.5" />
        <g
           id="g865"
           transform="translate(0,1.6434174)">
          <rect
             style="fill:#e5d3c4;fill-opacity:1;stroke:none;stroke-width:2;stroke-linecap:round;stroke-dasharray:2, 4;stop-color:#000000"
             id="rect893"
             width="25"
             height="25"
             x="45"
             y="88.356583"
             rx="2.0354004"
             ry="2.0354004" />
          <path
             id="rect895"
             style="fill:#cdab8f;stroke:none;stroke-width:1.78885;stroke-linecap:round;stroke-dasharray:1.78885, 3.57771;stop-color:#000000"
             d="M 45.027728,93.356583 H 70 v 17.999997 a 1.9999974,1.9999974 135 0 1 -1.999997,2 H 47.027725 a 1.9999974,1.9999974 45 0 1 -1.999997,-2 z"
             inkscape:path-effect="#path-effect1017"
             inkscape:original-d="M 45.027728,93.356583 H 70 V 113.35658 H 45.027728 Z"
             sodipodi:nodetypes="ccccc" />
          <path
             id="rect897"
             style="fill:#986a44;stroke:none;stroke-width:2;stroke-linecap:round;stroke-dasharray:2, 4;stop-color:#000000"
             d="m 54,88.356585 h 7 v 11.999995 l -7,3 z"
             sodipodi:nodetypes="ccccc" />
          <rect
             style="fill:#b5835a;stroke:none;stroke-width:2;stroke-linecap:round;stroke-dasharray:2, 4;stop-color:#000000"
             id="rect900"
             width="7"
             height="5"
             x="54"
             y="88.356583" />
        </g>
        <rect
           style="fill:#986a44;stroke:none;stroke-width:2;stroke-linecap:round;stroke-dasharray:2, 4;stop-color:#000000"
           id="rect904"
           width="10"
           height="3"
           x="76.836426"
           y="67"
           rx="1.5"
           ry="1.5" />
        <circle
           style="fill:#f6f5f4;stroke:none;stroke-width:0.622435;stroke-linecap:round;stroke-dasharray:0.622435, 1.24487;stop-color:#000000"
           id="circle2850"
           cx="84.967667"
           cy="111.03114"
           r="3.1121707" />
      </g>
      <rect
         style="fill:#8ff0a4;stroke:none;stroke-width:2;stroke-linecap:round;stroke-dasharray:2, 4;stop-color:#000000"
         id="rect2922"
         width="15"
         height="10"
         x="85"
         y="34" />
      <path
         style="fill:#2ec27e;fill-opacity:1;stroke:none;stroke-width:1px;stroke-linecap:butt;stroke-linejoin:miter;stroke-opacity:1"
         d="m 115,62 v 3 h -3 c 1,0 3,-1 3,-3 z"
         id="path1012"
         sodipodi:nodetypes="cccc" />
      <path
         style="fill:none;stroke:#99c1f1;stroke-width:2;stroke-linecap:round;stroke-linejoin:miter;stroke-miterlimit:4;stroke-dasharray:none;stroke-opacity:1"
         d="m 100,45 13,17"
         id="path1014"
         sodipodi:nodetypes="cc" />
    </g>
  </g>
</svg>
